                                                                        S      1
,,10HComponent2,22H13 ΦΟΡΕΣ ΑΥΤΟ,7Hunknown,7Hunknown,32,38,7,  G      1
99,15,,1.,2,2HMM,1,0.08,15H20250527.025019,0.01,10000.,7Hunknown,7HunknoG      2
wn,11,0,;                                                               G      3
     186       1                                                00000000D      1
     186            -111       1       0                               0D      2
     514       2                                                00010000D      3
     514                       1       1                               0D      4
     510       3                                                00010000D      5
     510            -111       1       1                               0D      6
     510       4                                                00010000D      7
     510            -111       1       1                               0D      8
     510       5                                                00010000D      9
     510            -111       1       1                               0D     10
     510       6                                                00010000D     11
     510            -111       1       1                               0D     12
     510       7                                                00010000D     13
     510            -111       1       1                               0D     14
     510       8                                                00010000D     15
     510            -111       1       1                               0D     16
     510       9                                                00010000D     17
     510            -111       1       1                               0D     18
     510      10                                                00010000D     19
     510            -111       1       1                               0D     20
     508      11                                                00010000D     21
     508                       1       1                               0D     22
     508      12                                                00010000D     23
     508                       1       1                               0D     24
     508      13                                                00010000D     25
     508                       1       1                               0D     26
     508      14                                                00010000D     27
     508                       1       1                               0D     28
     508      15                                                00010000D     29
     508                       2       1                               0D     30
     508      17                                                00010000D     31
     508                       2       1                               0D     32
     508      19                                                00010000D     33
     508                       1       1                               0D     34
     508      20                                                00010000D     35
     508                       1       1                               0D     36
     508      21                                                00010000D     37
     508                       1       1                               0D     38
     508      22                                                00010000D     39
     508                       1       1                               0D     40
     508      23                                                00010000D     41
     508                       1       1                               0D     42
     508      24                                                00010000D     43
     508                       1       1                               0D     44
     126      25                                                00010000D     45
     126       0              16       0                               0D     46
     126      41                                                00010000D     47
     126       0               3       0                               0D     48
     126      44                                                00010000D     49
     126       0              16       0                               0D     50
     126      60                                                00010000D     51
     126       0               3       0                               0D     52
     126      63                                                00010000D     53
     126       0               4       0                               0D     54
     126      67                                                00010000D     55
     126       0               3       0                               0D     56
     126      70                                                00010000D     57
     126       0               4       0                               0D     58
     126      74                                                00010000D     59
     126       0               4       0                               0D     60
     126      78                                                00010000D     61
     126       0               3       0                               0D     62
     126      81                                                00010000D     63
     126       0               4       0                               0D     64
     126      85                                                00010000D     65
     126       0              16       0                               0D     66
     126     101                                                00010000D     67
     126       0              16       0                               0D     68
     126     117                                                00010000D     69
     126       0              10       0                               0D     70
     126     127                                                00010000D     71
     126       0              10       0                               0D     72
     126     137                                                00010000D     73
     126       0               5       0                               0D     74
     126     142                                                00010000D     75
     126       0              10       0                               0D     76
     126     152                                                00010000D     77
     126       0               9       0                               0D     78
     126     161                                                00010000D     79
     126       0              10       0                               0D     80
     126     171                                                00010000D     81
     126       0              10       0                               0D     82
     126     181                                                00010000D     83
     126       0               4       0                               0D     84
     126     185                                                00010000D     85
     126       0              10       0                               0D     86
     126     195                                                00010000D     87
     126       0               9       0                               0D     88
     128     204                                                00010000D     89
     128       0    -111      28       0                               0D     90
     128     232                                                00010000D     91
     128       0    -111       9       0                               0D     92
     128     241                                                00010000D     93
     128       0    -111       9       0                               0D     94
     128     250                                                00010000D     95
     128       0    -111      28       0                               0D     96
     128     278                                                00010000D     97
     128       0    -111      27       0                               0D     98
     128     305                                                00010000D     99
     128       0    -111      26       0                               0D    100
     128     331                                                00010000D    101
     128       0    -111       9       0                               0D    102
     128     340                                                00010000D    103
     128       0    -111       9       0                               0D    104
     502     349                                                00010000D    105
     502                      16       1                               0D    106
     504     365                                                00010001D    107
     504                       6       1                               0D    108
     406     371                                                00000000D    109
     406                       1      15                               0D    110
     314     372                                                00000200D    111
     314                       2       0                               0D    112
     314     374                                                00000200D    113
     314                       2       0                               0D    114
186,3,1,0,0,1,109;                                                     1P      1
514,8,5,1,7,1,9,1,11,1,13,1,15,1,17,1,19,1;                            3P      2
510,89,1,1,21;                                                         5P      3
510,91,1,1,23;                                                         7P      4
510,93,1,1,25;                                                         9P      5
510,95,1,1,27;                                                        11P      6
510,97,1,1,29;                                                        13P      7
510,99,1,1,31;                                                        15P      8
510,101,3,1,33,35,37;                                                 17P      9
510,103,3,1,39,41,43;                                                 19P     10
508,4,0,107,1,0,0,0,107,2,0,0,0,107,3,0,0,0,107,4,0,0;                21P     11
508,4,0,107,4,1,0,0,107,5,0,0,0,107,6,1,0,0,107,7,0,0;                23P     12
508,4,0,107,2,1,0,0,107,8,0,0,0,107,9,1,0,0,107,10,1,0;               25P     13
508,4,0,107,11,0,0,0,107,6,0,0,0,107,12,0,0,0,107,9,0,0;              27P     14
508,6,0,107,13,0,0,0,107,14,0,0,0,107,15,1,0,0,107,16,0,0,0,107,      29P     15
17,0,0,0,107,15,0,0;                                                  29P     16
508,6,0,107,18,0,0,0,107,19,0,0,0,107,20,1,0,0,107,21,0,0,0,107,      31P     17
22,0,0,0,107,20,0,0;                                                  31P     18
508,4,0,107,8,1,0,0,107,1,1,0,0,107,7,1,0,0,107,11,1,0;               33P     19
508,2,0,107,13,1,0,0,107,14,1,0;                                      35P     20
508,2,0,107,18,1,0,0,107,19,1,0;                                      37P     21
508,4,0,107,12,1,0,0,107,5,1,0,0,107,3,1,0,0,107,10,0,0;              39P     22
508,2,0,107,16,1,0,0,107,17,1,0;                                      41P     23
508,2,0,107,21,1,0,0,107,22,1,0;                                      43P     24
126,8,2,0,0,0,0,0.609385308030876,0.609385308030876,                  45P     25
0.609385308030876,2.02783530781805,2.02783530781805,                  45P     26
3.44628530760523,3.44628530760523,4.86473530739241,                   45P     27
4.86473530739241,6.28318530717959,6.28318530717959,                   45P     28
6.28318530717959,1.,0.758866819436237,1.,0.75886681943624,1.,         45P     29
0.758866819436237,1.,0.758866819436239,1.,98.2438802071652,           45P     30
-5.42745455469105,50.5235595914693,100.560971607001,                  45P     31
-5.42745455469105,57.8914406567085,108.195152313459,                  45P     32
-5.42745455469105,56.7193191238217,115.829333019916,                  45P     33
-5.42745455469105,55.5471975909349,115.829333019919,                  45P     34
-5.42745455469105,47.8235595914748,115.829333019921,                  45P     35
-5.42745455469105,40.0999215920146,108.195152313464,                  45P     36
-5.42745455469105,38.9278000591228,100.560971607008,                  45P     37
-5.42745455469105,37.7556785262309,98.243880207167,                   45P     38
-5.42745455469105,45.1235595914686,0.609385308030876,                 45P     39
6.28318530717959,0.,0.,0.;                                            45P     40
126,1,1,0,0,1,0,0.,0.,0.3,0.3,1.,1.,98.243880207164,                  47P     41
-10.827454554691,50.523559591465,98.243880207164,                     47P     42
-5.42745455469105,50.523559591465,0.,0.3,0.,0.,0.;                    47P     43
126,8,2,0,0,0,0,0.609385308030876,0.609385308030876,                  49P     44
0.609385308030876,2.02783530781805,2.02783530781805,                  49P     45
3.44628530760523,3.44628530760523,4.86473530739241,                   49P     46
4.86473530739241,6.28318530717959,6.28318530717959,                   49P     47
6.28318530717959,1.,0.758866819436237,1.,0.758866819436243,1.,        49P     48
0.758866819436242,1.,0.758866819436247,1.,98.243880207167,            49P     49
-10.827454554691,45.1235595914686,100.560971607008,                   49P     50
-10.827454554691,37.7556785262309,108.195152313464,                   49P     51
-10.827454554691,38.9278000591228,115.829333019921,                   49P     52
-10.827454554691,40.0999215920147,115.829333019919,                   49P     53
-10.827454554691,47.8235595914748,115.829333019916,                   49P     54
-10.827454554691,55.5471975909349,108.195152313459,                   49P     55
-10.827454554691,56.7193191238217,100.560971607001,                   49P     56
-10.827454554691,57.8914406567085,98.2438802071652,                   49P     57
-10.827454554691,50.5235595914693,0.609385308030876,                  49P     58
6.28318530717959,0.,0.,0.;                                            49P     59
126,1,1,0,0,1,0,0.,0.,0.3,0.3,1.,1.,98.2438802071683,                 51P     60
-5.42745455469105,45.123559591465,98.2438802071683,                   51P     61
-10.827454554691,45.123559591465,0.,0.3,0.,0.,0.;                     51P     62
126,1,1,0,0,1,0,0.,0.,2.1460607985841,2.1460607985841,1.,1.,          53P     63
59.6147858326532,-10.8274545546927,45.123559591465,                   53P     64
98.243880207167,-10.8274545546927,45.123559591465,0.,                 53P     65
2.1460607985841,0.,0.,0.;                                             53P     66
126,1,1,0,0,1,0,0.,0.,0.3,0.3,1.,1.,59.6147858326521,                 55P     67
-10.827454554691,45.123559591465,59.6147858326521,                    55P     68
-5.42745455469105,45.123559591465,0.,0.3,0.,0.,0.;                    55P     69
126,1,1,0,0,1,0,0.,0.,2.1460607985841,2.1460607985841,1.,1.,          57P     70
98.243880207167,-5.42745455469269,45.123559591465,                    57P     71
59.6147858326532,-5.42745455469269,45.123559591465,0.,                57P     72
2.1460607985841,0.,0.,0.;                                             57P     73
126,1,1,0,0,1,0,0.,0.,2.14606079858389,2.14606079858389,1.,1.,        59P     74
59.6147858326552,-5.42745455469269,50.523559591465,                   59P     75
98.2438802071652,-5.42745455469269,50.523559591465,0.,                59P     76
2.14606079858389,0.,0.,0.;                                            59P     77
126,1,1,0,0,1,0,0.,0.,0.3,0.3,1.,1.,59.6147858326565,                 61P     78
-5.42745455469105,50.523559591465,59.6147858326565,                   61P     79
-10.827454554691,50.523559591465,0.,0.3,0.,0.,0.;                     61P     80
126,1,1,0,0,1,0,0.,0.,2.14606079858389,2.14606079858389,1.,1.,        63P     81
59.6147858326552,-10.8274545546927,50.523559591465,                   63P     82
98.2438802071652,-10.8274545546927,50.523559591465,0.,                63P     83
2.14606079858389,0.,0.,0.;                                            63P     84
126,8,2,0,0,0,0,0.609385308030855,0.609385308030855,                  65P     85
0.609385308030855,2.02783530781804,2.02783530781804,                  65P     86
3.44628530760522,3.44628530760522,4.8647353073924,                    65P     87
4.8647353073924,6.28318530717959,6.28318530717959,                    65P     88
6.28318530717959,1.,0.758866819436241,1.,0.758866819436241,1.,        65P     89
0.758866819436241,1.,0.758866819436241,1.,59.6147858326532,           65P     90
-5.42745455469105,45.1235595914684,57.2976944328122,                  65P     91
-5.42745455469105,37.7556785262307,49.6635137263555,                  65P     92
-5.42745455469105,38.9278000591228,42.0293330198988,                  65P     93
-5.42745455469105,40.0999215920149,42.0293330199017,                  65P     94
-5.42745455469105,47.8235595914751,42.0293330199045,                  65P     95
-5.42745455469105,55.5471975909353,49.663513726362,                   65P     96
-5.42745455469105,56.7193191238218,57.2976944328196,                  65P     97
-5.42745455469105,57.8914406567084,59.6147858326552,                  65P     98
-5.42745455469105,50.523559591469,0.609385308030855,                  65P     99
6.28318530717959,0.,0.,0.;                                            65P    100
126,8,2,0,0,0,0,0.609385308030855,0.609385308030855,                  67P    101
0.609385308030855,2.02783530781804,2.02783530781804,                  67P    102
3.44628530760522,3.44628530760522,4.8647353073924,                    67P    103
4.8647353073924,6.28318530717959,6.28318530717959,                    67P    104
6.28318530717959,1.,0.758866819436242,1.,0.758866819436238,1.,        67P    105
0.758866819436238,1.,0.75886681943624,1.,59.6147858326552,            67P    106
-10.827454554691,50.523559591469,57.2976944328196,                    67P    107
-10.827454554691,57.8914406567083,49.663513726362,                    67P    108
-10.827454554691,56.7193191238218,42.0293330199045,                   67P    109
-10.827454554691,55.5471975909353,42.0293330199016,                   67P    110
-10.827454554691,47.8235595914751,42.0293330198988,                   67P    111
-10.827454554691,40.0999215920149,49.6635137263555,                   67P    112
-10.827454554691,38.9278000591228,57.2976944328122,                   67P    113
-10.827454554691,37.7556785262307,59.6147858326532,                   67P    114
-10.827454554691,45.1235595914684,0.609385308030855,                  67P    115
6.28318530717959,0.,0.,0.;                                            67P    116
126,4,2,0,0,0,0,0.620090213644917,0.620090213644917,                  69P    117
0.620090213644917,2.19088654043982,2.19088654043982,                  69P    118
3.76168286723471,3.76168286723471,3.76168286723471,1.,                69P    119
0.707106781186548,1.,0.707106781186549,1.,108.938052196315,           69P    120
-5.42745455469269,42.8523119175914,113.909299870192,                  69P    121
-5.42745455469269,44.9610310940053,111.800580693778,                  69P    122
-5.42745455469269,49.9322787678819,109.691861517364,                  69P    123
-5.42745455469269,54.9035264417586,104.720613843487,                  69P    124
-5.42745455469269,52.7948072653447,0.620090213644917,                 69P    125
3.76168286723471,0.,0.,0.;                                            69P    126
126,4,2,0,0,0,0,3.76168286723471,3.76168286723471,                    71P    127
3.76168286723471,5.33247919402961,5.33247919402961,                   71P    128
6.9032755208245,6.9032755208245,6.9032755208245,1.,                   71P    129
0.707106781186545,1.,0.707106781186548,1.,104.720613843487,           71P    130
-5.42745455469269,52.7948072653447,99.7493661696106,                  71P    131
-5.42745455469269,50.6860880889307,101.858085346024,                  71P    132
-5.42745455469269,45.7148404150541,103.966804522438,                  71P    133
-5.42745455469269,40.7435927411775,108.938052196315,                  71P    134
-5.42745455469269,42.8523119175914,3.76168286723471,                  71P    135
6.9032755208245,0.,0.,0.;                                             71P    136
126,1,1,0,0,1,0,-0.500000000000001,-0.500000000000001,                73P    137
0.500000000000001,0.500000000000001,1.,1.,104.720613843487,           73P    138
-5.42745455469269,52.7948072653447,104.720613843487,                  73P    139
-10.8274545546927,52.7948072653447,-0.500000000000001,                73P    140
0.500000000000001,0.,0.,0.;                                           73P    141
126,4,2,0,0,0,0,0.620090213644922,0.620090213644922,                  75P    142
0.620090213644922,2.19088654043981,2.19088654043981,                  75P    143
3.7616828672347,3.7616828672347,3.7616828672347,1.,                   75P    144
0.707106781186555,1.,0.707106781186546,1.,108.938052196315,           75P    145
-10.8274545546927,42.8523119175914,103.966804522438,                  75P    146
-10.8274545546927,40.7435927411776,101.858085346025,                  75P    147
-10.8274545546927,45.7148404150541,99.7493661696106,                  75P    148
-10.8274545546927,50.6860880889307,104.720613843487,                  75P    149
-10.8274545546927,52.7948072653447,0.620090213644922,                 75P    150
3.7616828672347,0.,0.,0.;                                             75P    151
126,4,2,0,0,0,0,3.7616828672347,3.7616828672347,3.7616828672347,      77P    152
5.3324791940296,5.3324791940296,6.90327552082451,                     77P    153
6.90327552082451,6.90327552082451,1.,0.707106781186545,1.,            77P    154
0.707106781186541,1.,104.720613843487,-10.8274545546927,              77P    155
52.7948072653447,109.691861517364,-10.8274545546927,                  77P    156
54.9035264417587,111.800580693778,-10.8274545546927,                  77P    157
49.932278767882,113.909299870192,-10.8274545546927,                   77P    158
44.9610310940053,108.938052196315,-10.8274545546927,                  77P    159
42.8523119175914,3.7616828672347,6.90327552082451,0.,0.,0.;           77P    160
126,4,2,0,0,0,0,0.62009021364491,0.62009021364491,                    79P    161
0.62009021364491,2.19088654043982,2.19088654043982,                   79P    162
3.76168286723473,3.76168286723473,3.76168286723473,1.,                79P    163
0.707106781186546,1.,0.707106781186539,1.,53.1380521963045,           79P    164
-5.42745455469269,42.8523119175914,58.1092998701812,                  79P    165
-5.42745455469269,44.9610310940053,56.0005806937672,                  79P    166
-5.42745455469269,49.9322787678821,53.8918615173532,                  79P    167
-5.42745455469269,54.9035264417588,48.9206138434765,                  79P    168
-5.42745455469269,52.7948072653448,0.62009021364491,                  79P    169
3.76168286723473,0.,0.,0.;                                            79P    170
126,4,2,0,0,0,0,3.76168286723473,3.76168286723473,                    81P    171
3.76168286723473,5.33247919402961,5.33247919402961,                   81P    172
6.9032755208245,6.9032755208245,6.9032755208245,1.,                   81P    173
0.70710678118655,1.,0.707106781186553,1.,48.9206138434765,            81P    174
-5.42745455469269,52.7948072653448,43.9493661696,                     81P    175
-5.42745455469269,50.6860880889308,46.0580853460139,                  81P    176
-5.42745455469269,45.7148404150541,48.1668045224278,                  81P    177
-5.42745455469269,40.7435927411775,53.1380521963044,                  81P    178
-5.42745455469269,42.8523119175914,3.76168286723473,                  81P    179
6.9032755208245,0.,0.,0.;                                             81P    180
126,1,1,0,0,1,0,-0.5,-0.5,0.499999999999999,0.499999999999999,        83P    181
1.,1.,48.9206138434765,-5.42745455469269,52.7948072653447,            83P    182
48.9206138434765,-10.8274545546927,52.7948072653447,-0.5,             83P    183
0.499999999999999,0.,0.,0.;                                           83P    184
126,4,2,0,0,0,0,0.620090213644917,0.620090213644917,                  85P    185
0.620090213644917,2.19088654043981,2.19088654043981,                  85P    186
3.7616828672347,3.7616828672347,3.7616828672347,1.,                   85P    187
0.70710678118655,1.,0.707106781186547,1.,53.1380521963044,            85P    188
-10.8274545546927,42.8523119175914,48.1668045224278,                  85P    189
-10.8274545546927,40.7435927411775,46.0580853460139,                  85P    190
-10.8274545546927,45.7148404150541,43.9493661695999,                  85P    191
-10.8274545546927,50.6860880889307,48.9206138434766,                  85P    192
-10.8274545546927,52.7948072653447,0.620090213644917,                 85P    193
3.7616828672347,0.,0.,0.;                                             85P    194
126,4,2,0,0,0,0,3.7616828672347,3.7616828672347,3.7616828672347,      87P    195
5.3324791940296,5.3324791940296,6.9032755208245,6.9032755208245,      87P    196
6.9032755208245,1.,0.707106781186548,1.,0.707106781186548,1.,         87P    197
48.9206138434766,-10.8274545546927,52.7948072653447,                  87P    198
53.8918615173532,-10.8274545546927,54.9035264417587,                  87P    199
56.0005806937672,-10.8274545546927,49.932278767882,                   87P    200
58.1092998701811,-10.8274545546927,44.9610310940053,                  87P    201
53.1380521963044,-10.8274545546927,42.8523119175914,                  87P    202
3.7616828672347,6.9032755208245,0.,0.,0.;                             87P    203
128,1,8,1,2,0,0,0,0,0,-0.299999999999995,-0.299999999999995,          89P    204
0.299999999999995,0.299999999999995,1.94905819878635D-14,             89P    205
1.94905819878635D-14,1.94905819878635D-14,1.41844999978734,           89P    206
1.41844999978734,2.83689999957464,2.83689999957464,                   89P    207
4.25534999936194,4.25534999936194,5.67379999914924,                   89P    208
5.67379999914924,5.67379999914924,1.,1.,0.758866819436199,            89P    209
0.758866819436199,1.,1.,0.758866819436199,0.758866819436199,1.,       89P    210
1.,0.758866819436199,0.758866819436199,1.,1.,0.758866819436199,       89P    211
0.758866819436199,1.,1.,98.243880207167,-10.827454554691,             89P    212
45.1235595914688,98.243880207167,-5.42745455469105,                   89P    213
45.1235595914688,100.560971607008,-10.827454554691,                   89P    214
37.75567852623,100.560971607008,-5.42745455469105,                    89P    215
37.75567852623,108.195152313466,-10.827454554691,                     89P    216
38.927800059123,108.195152313466,-5.42745455469105,                   89P    217
38.927800059123,115.829333019923,-10.827454554691,                    89P    218
40.0999215920162,115.829333019923,-5.42745455469105,                  89P    219
40.0999215920162,115.829333019919,-10.827454554691,                   89P    220
47.8235595914774,115.829333019919,-5.42745455469105,                  89P    221
47.8235595914774,115.829333019914,-10.827454554691,                   89P    222
55.5471975909386,115.829333019914,-5.42745455469105,                  89P    223
55.5471975909386,108.195152313455,-10.827454554691,                   89P    224
56.7193191238225,108.195152313455,-5.42745455469105,                  89P    225
56.7193191238225,100.560971606996,-10.827454554691,                   89P    226
57.8914406567065,100.560971606996,-5.42745455469105,                  89P    227
57.8914406567065,98.2438802071638,-10.827454554691,                   89P    228
50.523559591465,98.2438802071638,-5.42745455469105,                   89P    229
50.523559591465,-0.299999999999995,0.299999999999995,                 89P    230
1.94905819878635D-14,5.67379999914924;                                89P    231
128,1,1,1,1,0,0,1,0,0,-1.07403039929211,-1.07403039929211,            91P    232
1.07403039929211,1.07403039929211,1.11889664200504D-16,               91P    233
1.11889664200504D-16,0.302000000000091,0.302000000000091,1.,1.,       91P    234
1.,1.,98.2618802071683,-10.8454545546927,45.123559591465,             91P    235
59.5967858326521,-10.8454545546927,45.123559591465,                   91P    236
98.2618802071683,-5.40945455469105,45.123559591465,                   91P    237
59.5967858326521,-5.40945455469105,45.123559591465,                   91P    238
-1.07403039929211,1.07403039929211,1.11889664200504D-16,              91P    239
0.302000000000091;                                                    91P    240
128,1,1,1,1,0,0,1,0,0,-1.07403039929194,-1.07403039929194,            93P    241
1.07403039929195,1.07403039929195,1.11889664200504D-16,               93P    242
1.11889664200504D-16,0.302000000000091,0.302000000000091,1.,1.,       93P    243
1.,1.,59.5967858326552,-10.8454545546927,50.523559591465,             93P    244
98.2618802071652,-10.8454545546927,50.523559591465,                   93P    245
59.5967858326552,-5.40945455469105,50.523559591465,                   93P    246
98.2618802071652,-5.40945455469105,50.523559591465,                   93P    247
-1.07403039929194,1.07403039929195,1.11889664200504D-16,              93P    248
0.302000000000091;                                                    93P    249
128,1,8,1,2,0,0,0,0,0,-0.300000000000002,-0.300000000000002,          95P    250
0.300000000000002,0.300000000000002,-3.20731096002825D-15,            95P    251
-3.20731096002825D-15,-3.20731096002825D-15,1.41844999978729,         95P    252
1.41844999978729,2.83689999957459,2.83689999957459,                   95P    253
4.25534999936189,4.25534999936189,5.67379999914918,                   95P    254
5.67379999914918,5.67379999914918,1.,1.,0.758866819436202,            95P    255
0.758866819436202,1.,1.,0.758866819436202,0.758866819436202,1.,       95P    256
1.,0.758866819436202,0.758866819436202,1.,1.,0.758866819436202,       95P    257
0.758866819436202,1.,1.,59.6147858326565,-10.827454554691,            95P    258
50.523559591465,59.6147858326565,-5.42745455469105,                   95P    259
50.523559591465,57.2976944328239,-10.827454554691,                    95P    260
57.8914406567061,57.2976944328239,-5.42745455469105,                  95P    261
57.8914406567061,49.6635137263652,-10.827454554691,                   95P    262
56.719319123822,49.6635137263652,-5.42745455469105,                   95P    263
56.719319123822,42.0293330199065,-10.827454554691,                    95P    264
55.5471975909379,42.0293330199065,-5.42745455469105,                  95P    265
55.5471975909379,42.029333019902,-10.827454554691,                    95P    266
47.8235595914769,42.029333019902,-5.42745455469105,                   95P    267
47.8235595914769,42.0293330198974,-10.827454554691,                   95P    268
40.099921592016,42.0293330198974,-5.42745455469105,                   95P    269
40.099921592016,49.6635137263548,-10.827454554691,                    95P    270
38.9278000591229,49.6635137263548,-5.42745455469105,                  95P    271
38.9278000591229,57.2976944328122,-10.827454554691,                   95P    272
37.7556785262299,57.2976944328122,-5.42745455469105,                  95P    273
37.7556785262299,59.6147858326533,-10.827454554691,                   95P    274
45.1235595914684,59.6147858326533,-5.42745455469105,                  95P    275
45.1235595914684,-0.300000000000002,0.300000000000002,                95P    276
-3.20731096002825D-15,5.67379999914918;                               95P    277
128,1,8,1,2,0,1,0,0,1,-0.500000000000001,-0.500000000000001,          97P    278
0.500000000000001,0.500000000000001,-3.14159265358979,                97P    279
-3.14159265358979,-3.14159265358979,-1.5707963267949,                 97P    280
-1.5707963267949,0.,0.,1.5707963267949,1.5707963267949,               97P    281
3.14159265358979,3.14159265358979,3.14159265358979,1.,1.,             97P    282
0.707106781186548,0.707106781186548,1.,1.,0.707106781186548,          97P    283
0.707106781186548,1.,1.,0.707106781186548,0.707106781186548,1.,       97P    284
1.,0.707106781186548,0.707106781186548,1.,1.,104.720613843487,        97P    285
-10.8274545546927,52.7948072653447,104.720613843487,                  97P    286
-5.42745455469269,52.7948072653447,109.691861517364,                  97P    287
-10.8274545546927,54.9035264417586,109.691861517364,                  97P    288
-5.42745455469269,54.9035264417586,111.800580693778,                  97P    289
-10.8274545546927,49.932278767882,111.800580693778,                   97P    290
-5.42745455469269,49.932278767882,113.909299870192,                   97P    291
-10.8274545546927,44.9610310940053,113.909299870192,                  97P    292
-5.42745455469269,44.9610310940053,108.938052196315,                  97P    293
-10.8274545546927,42.8523119175914,108.938052196315,                  97P    294
-5.42745455469269,42.8523119175914,103.966804522438,                  97P    295
-10.8274545546927,40.7435927411775,103.966804522438,                  97P    296
-5.42745455469269,40.7435927411775,101.858085346024,                  97P    297
-10.8274545546927,45.7148404150541,101.858085346024,                  97P    298
-5.42745455469269,45.7148404150541,99.7493661696105,                  97P    299
-10.8274545546927,50.6860880889308,99.7493661696105,                  97P    300
-5.42745455469269,50.6860880889308,104.720613843487,                  97P    301
-10.8274545546927,52.7948072653447,104.720613843487,                  97P    302
-5.42745455469269,52.7948072653447,-0.500000000000001,                97P    303
0.500000000000001,-3.14159265358979,3.14159265358979;                 97P    304
128,1,8,1,2,0,1,0,0,1,-0.499999999999999,-0.499999999999999,0.5,      99P    305
0.5,-3.14159265358979,-3.14159265358979,-3.14159265358979,            99P    306
-1.5707963267949,-1.5707963267949,0.,0.,1.5707963267949,              99P    307
1.5707963267949,3.14159265358979,3.14159265358979,                    99P    308
3.14159265358979,1.,1.,0.707106781186548,0.707106781186548,1.,        99P    309
1.,0.707106781186548,0.707106781186548,1.,1.,0.707106781186548,       99P    310
0.707106781186548,1.,1.,0.707106781186548,0.707106781186548,1.,       99P    311
1.,48.9206138434765,-10.8274545546927,52.7948072653447,               99P    312
48.9206138434765,-5.42745455469269,52.7948072653447,                  99P    313
53.8918615173532,-10.8274545546927,54.9035264417587,                  99P    314
53.8918615173532,-5.42745455469269,54.9035264417587,                  99P    315
56.0005806937672,-10.8274545546927,49.932278767882,                   99P    316
56.0005806937672,-5.42745455469269,49.932278767882,                   99P    317
58.1092998701811,-10.8274545546927,44.9610310940053,                  99P    318
58.1092998701811,-5.42745455469269,44.9610310940053,                  99P    319
53.1380521963044,-10.8274545546927,42.8523119175914,                  99P    320
53.1380521963044,-5.42745455469269,42.8523119175914,                  99P    321
48.1668045224278,-10.8274545546927,40.7435927411774,                  99P    322
48.1668045224278,-5.42745455469269,40.7435927411774,                  99P    323
46.0580853460138,-10.8274545546927,45.7148404150541,                  99P    324
46.0580853460138,-5.42745455469269,45.7148404150541,                  99P    325
43.9493661695999,-10.8274545546927,50.6860880889308,                  99P    326
43.9493661695999,-5.42745455469269,50.6860880889308,                  99P    327
48.9206138434765,-10.8274545546927,52.7948072653447,                  99P    328
48.9206138434765,-5.42745455469269,52.7948072653447,                  99P    329
-0.499999999999999,0.5,-3.14159265358979,3.14159265358979;            99P    330
128,1,1,1,1,0,0,1,0,0,-1.12065345169321,-1.12065345169321,           101P    331
4.88498130835069D-15,4.88498130835069D-15,-2.05100000000062,         101P    332
-2.05100000000062,2.05100000000062,2.05100000000062,1.,1.,1.,1.,     101P    333
42.0113330198988,-5.42745455469269,37.7376785262307,                 101P    334
42.0113330198988,-5.42745455469269,57.9094406567086,                 101P    335
115.847333019921,-5.42745455469269,37.7376785262307,                 101P    336
115.847333019921,-5.42745455469269,57.9094406567086,                 101P    337
-1.12065345169321,4.88498130835069D-15,-2.05100000000062,            101P    338
2.05100000000062;                                                    101P    339
128,1,1,1,1,0,0,1,0,0,-3.66286861952503D-15,                         103P    340
-3.66286861952503D-15,1.12065345169321,1.12065345169321,             103P    341
-2.05100000000062,-2.05100000000062,2.05100000000062,                103P    342
2.05100000000062,1.,1.,1.,1.,42.0113330198988,-10.8274545546927,     103P    343
57.9094406567085,42.0113330198988,-10.8274545546927,                 103P    344
37.7376785262307,115.847333019921,-10.8274545546927,                 103P    345
57.9094406567085,115.847333019921,-10.8274545546927,                 103P    346
37.7376785262307,-3.66286861952503D-15,1.12065345169321,             103P    347
-2.05100000000062,2.05100000000062;                                  103P    348
502,16,98.2438802071652,-5.42745455469105,50.5235595914693,          105P    349
98.243880207167,-5.42745455469105,45.1235595914686,                  105P    350
98.2438802071652,-10.827454554691,50.5235595914693,                  105P    351
98.243880207167,-10.827454554691,45.1235595914686,                   105P    352
59.6147858326532,-10.827454554691,45.1235595914684,                  105P    353
59.6147858326532,-5.42745455469105,45.1235595914684,                 105P    354
59.6147858326552,-5.42745455469105,50.523559591469,                  105P    355
59.6147858326552,-10.827454554691,50.523559591469,                   105P    356
108.938052196315,-5.42745455469269,42.8523119175914,                 105P    357
104.720613843487,-5.42745455469269,52.7948072653447,                 105P    358
104.720613843487,-10.8274545546927,52.7948072653447,                 105P    359
108.938052196315,-10.8274545546927,42.8523119175914,                 105P    360
53.1380521963044,-5.42745455469269,42.8523119175914,                 105P    361
48.9206138434765,-5.42745455469269,52.7948072653447,                 105P    362
48.9206138434765,-10.8274545546927,52.7948072653447,                 105P    363
53.1380521963044,-10.8274545546927,42.8523119175914;                 105P    364
504,22,45,105,1,105,2,47,105,3,105,1,49,105,4,105,3,51,105,2,        107P    365
105,4,53,105,5,105,4,55,105,5,105,6,57,105,2,105,6,59,105,7,105,     107P    366
1,61,105,7,105,8,63,105,8,105,3,65,105,6,105,7,67,105,8,105,5,       107P    367
69,105,9,105,10,71,105,10,105,9,73,105,10,105,11,75,105,12,105,      107P    368
11,77,105,11,105,12,79,105,13,105,14,81,105,14,105,13,83,105,14,     107P    369
105,15,85,105,16,105,15,87,105,15,105,16;                            107P    370
406,1,5HBody1;                                                       109P    371
314,96.4705882352941,96.4705882352941,95.2941176470588,19HOpaque     111P    372
(246,246,243);                                                       111P    373
314,62.7450980392157,62.7450980392157,62.7450980392157,13HSteel      113P    374
- Satin;                                                             113P    375
S      1G      3D    114P    375                                        T      1
