                                                                        S      1
,,15HFusionComponent,13H2 ΦΟΡΕΣ ,7Hunknown,7Hunknown,32,38,7,99,15,G      1
,1.,2,2HMM,1,0.08,15H20250527.030745,0.01,10000.,7Hunknown,7Hunknown,11,G      2
0,;                                                                     G      3
     186       1                                                00000000D      1
     186            -123       1       0                               0D      2
     514       2                                                00010000D      3
     514                       1       1                               0D      4
     510       3                                                00010000D      5
     510            -123       1       1                               0D      6
     510       4                                                00010000D      7
     510            -123       1       1                               0D      8
     510       5                                                00010000D      9
     510            -123       1       1                               0D     10
     510       6                                                00010000D     11
     510            -123       1       1                               0D     12
     510       7                                                00010000D     13
     510            -123       1       1                               0D     14
     510       8                                                00010000D     15
     510            -123       1       1                               0D     16
     510       9                                                00010000D     17
     510            -123       1       1                               0D     18
     510      10                                                00010000D     19
     510            -123       1       1                               0D     20
     510      11                                                00010000D     21
     510            -123       1       1                               0D     22
     508      12                                                00010000D     23
     508                       1       1                               0D     24
     508      13                                                00010000D     25
     508                       1       1                               0D     26
     508      14                                                00010000D     27
     508                       1       1                               0D     28
     508      15                                                00010000D     29
     508                       1       1                               0D     30
     508      16                                                00010000D     31
     508                       1       1                               0D     32
     508      17                                                00010000D     33
     508                       1       1                               0D     34
     508      18                                                00010000D     35
     508                       1       1                               0D     36
     508      19                                                00010000D     37
     508                       1       1                               0D     38
     508      20                                                00010000D     39
     508                       1       1                               0D     40
     508      21                                                00010000D     41
     508                       1       1                               0D     42
     508      22                                                00010000D     43
     508                       1       1                               0D     44
     508      23                                                00010000D     45
     508                       1       1                               0D     46
     508      24                                                00010000D     47
     508                       1       1                               0D     48
     508      25                                                00010000D     49
     508                       1       1                               0D     50
     508      26                                                00010000D     51
     508                       1       1                               0D     52
     508      27                                                00010000D     53
     508                       1       1                               0D     54
     508      28                                                00010000D     55
     508                       1       1                               0D     56
     508      29                                                00010000D     57
     508                       2       1                               0D     58
     126      31                                                00010000D     59
     126       0              16       0                               0D     60
     126      47                                                00010000D     61
     126       0              16       0                               0D     62
     126      63                                                00010000D     63
     126       0              16       0                               0D     64
     126      79                                                00010000D     65
     126       0              16       0                               0D     66
     126      95                                                00010000D     67
     126       0              16       0                               0D     68
     126     111                                                00010000D     69
     126       0              10       0                               0D     70
     126     121                                                00010000D     71
     126       0              10       0                               0D     72
     126     131                                                00010000D     73
     126       0              10       0                               0D     74
     126     141                                                00010000D     75
     126       0              10       0                               0D     76
     126     151                                                00010000D     77
     126       0               5       0                               0D     78
     126     156                                                00010000D     79
     126       0              16       0                               0D     80
     126     172                                                00010000D     81
     126       0               5       0                               0D     82
     126     177                                                00010000D     83
     126       0              16       0                               0D     84
     126     193                                                00010000D     85
     126       0               5       0                               0D     86
     126     198                                                00010000D     87
     126       0              16       0                               0D     88
     126     214                                                00010000D     89
     126       0               5       0                               0D     90
     126     219                                                00010000D     91
     126       0              16       0                               0D     92
     126     235                                                00010000D     93
     126       0               5       0                               0D     94
     126     240                                                00010000D     95
     126       0              15       0                               0D     96
     126     255                                                00010000D     97
     126       0               5       0                               0D     98
     128     260                                                00010000D     99
     128       0    -123       9       0                               0D    100
     128     269                                                00010000D    101
     128       0    -123       9       0                               0D    102
     128     278                                                00010000D    103
     128       0    -123      27       0                               0D    104
     128     305                                                00010000D    105
     128       0    -123      27       0                               0D    106
     128     332                                                00010000D    107
     128       0    -123      27       0                               0D    108
     128     359                                                00010000D    109
     128       0    -123      27       0                               0D    110
     128     386                                                00010000D    111
     128       0    -123      28       0                               0D    112
     128     414                                                00010000D    113
     128       0    -123       9       0                               0D    114
     128     423                                                00010000D    115
     128       0    -123      27       0                               0D    116
     502     450                                                00010000D    117
     502                      14       1                               0D    118
     504     464                                                00010001D    119
     504                       6       1                               0D    120
     406     470                                                00000000D    121
     406                       1      15                               0D    122
     314     471                                                00000200D    123
     314                       2       0                               0D    124
     314     473                                                00000200D    125
     314                       2       0                               0D    126
186,3,1,0,0,1,121;                                                     1P      1
514,9,5,1,7,1,9,1,11,1,13,1,15,1,17,1,19,1,21,1;                       3P      2
510,99,6,1,23,25,27,29,31,33;                                          5P      3
510,101,1,1,35;                                                        7P      4
510,103,1,1,37;                                                        9P      5
510,105,1,1,39;                                                       11P      6
510,107,1,1,41;                                                       13P      7
510,109,1,1,43;                                                       15P      8
510,111,1,1,45;                                                       17P      9
510,113,5,1,47,49,51,53,55;                                           19P     10
510,115,1,1,57;                                                       21P     11
508,1,0,119,1,0,0;                                                    23P     12
508,1,0,119,2,0,0;                                                    25P     13
508,1,0,119,3,0,0;                                                    27P     14
508,1,0,119,4,0,0;                                                    29P     15
508,1,0,119,5,0,0;                                                    31P     16
508,2,0,119,6,0,0,0,119,7,0,0;                                        33P     17
508,2,0,119,8,1,0,0,119,9,1,0;                                        35P     18
508,4,0,119,2,1,0,0,119,10,1,0,0,119,11,0,0,0,119,10,0,0;             37P     19
508,4,0,119,3,1,0,0,119,12,1,0,0,119,13,0,0,0,119,12,0,0;             39P     20
508,4,0,119,4,1,0,0,119,14,1,0,0,119,15,0,0,0,119,14,0,0;             41P     21
508,4,0,119,5,1,0,0,119,16,1,0,0,119,17,0,0,0,119,16,0,0;             43P     22
508,4,0,119,1,1,0,0,119,18,1,0,0,119,19,0,0,0,119,18,0,0;             45P     23
508,1,0,119,19,1,0;                                                   47P     24
508,1,0,119,11,1,0;                                                   49P     25
508,1,0,119,13,1,0;                                                   51P     26
508,1,0,119,15,1,0;                                                   53P     27
508,1,0,119,17,1,0;                                                   55P     28
508,6,0,119,8,0,0,0,119,9,0,0,0,119,20,1,0,0,119,7,1,0,0,119,6,       57P     29
1,0,0,119,20,0,0;                                                     57P     30
126,8,2,0,1,0,0,-3.14159265358979,-3.14159265358979,                  59P     31
-3.14159265358979,-1.5707963267949,-1.5707963267949,                  59P     32
-1.33226762955019D-15,-1.33226762955019D-15,1.5707963267949,          59P     33
1.5707963267949,3.14159265358979,3.14159265358979,                    59P     34
3.14159265358979,1.,0.70710678118655,1.,0.707106781186539,1.,         59P     35
0.70710678118655,1.,0.707106781186539,1.,-347.419008280757,           59P     36
174.981564891641,-42.4487496924262,-347.419008280757,                 59P     37
164.981564891641,-42.4487496924262,-337.419008280757,                 59P     38
164.981564891641,-42.4487496924263,-327.419008280757,                 59P     39
164.981564891641,-42.4487496924264,-327.419008280757,                 59P     40
174.981564891641,-42.4487496924264,-327.419008280757,                 59P     41
184.981564891641,-42.4487496924264,-337.419008280757,                 59P     42
184.981564891641,-42.4487496924263,-347.419008280757,                 59P     43
184.981564891641,-42.4487496924262,-347.419008280757,                 59P     44
174.981564891641,-42.4487496924262,-3.14159265358979,                 59P     45
3.14159265358979,0.,0.,0.;                                            59P     46
126,8,2,0,1,0,0,-3.1415926535898,-3.1415926535898,                    61P     47
-3.1415926535898,-1.5707963267949,-1.5707963267949,                   61P     48
-5.77315972805081D-15,-5.77315972805081D-15,1.57079632679489,         61P     49
1.57079632679489,3.14159265358979,3.14159265358979,                   61P     50
3.14159265358979,1.,0.707106781186581,1.,0.707106781186581,1.,        61P     51
0.707106781186581,1.,0.707106781186581,1.,-341.16722239682,           61P     52
175.115189926503,-42.4487496924262,-341.16722239682,                  61P     53
173.865189926503,-42.4487496924262,-342.41722239682,                  61P     54
173.865189926503,-42.4487496924262,-343.66722239682,                  61P     55
173.865189926503,-42.4487496924262,-343.66722239682,                  61P     56
175.115189926503,-42.4487496924262,-343.66722239682,                  61P     57
176.365189926503,-42.4487496924262,-342.41722239682,                  61P     58
176.365189926503,-42.4487496924262,-341.16722239682,                  61P     59
176.365189926503,-42.4487496924262,-341.16722239682,                  61P     60
175.115189926503,-42.4487496924262,-3.1415926535898,                  61P     61
3.14159265358979,0.,0.,0.;                                            61P     62
126,8,2,0,1,0,0,-3.1415926535898,-3.1415926535898,                    63P     63
-3.1415926535898,-1.5707963267949,-1.5707963267949,                   63P     64
-5.77315972805081D-15,-5.77315972805081D-15,1.57079632679489,         63P     65
1.57079632679489,3.14159265358979,3.14159265358979,                   63P     66
3.14159265358979,1.,0.707106781186581,1.,0.707106781186581,1.,        63P     67
0.707106781186581,1.,0.707106781186581,1.,-336.035383245892,          63P     68
179.979779007711,-42.4487496924263,-336.035383245892,                 63P     69
178.729779007711,-42.4487496924263,-337.285383245892,                 63P     70
178.729779007711,-42.4487496924263,-338.535383245892,                 63P     71
178.729779007711,-42.4487496924263,-338.535383245892,                 63P     72
179.979779007711,-42.4487496924263,-338.535383245892,                 63P     73
181.229779007711,-42.4487496924263,-337.285383245892,                 63P     74
181.229779007711,-42.4487496924263,-336.035383245892,                 63P     75
181.229779007711,-42.4487496924263,-336.035383245892,                 63P     76
179.979779007711,-42.4487496924263,-3.1415926535898,                  63P     77
3.14159265358979,0.,0.,0.;                                            63P     78
126,8,2,0,1,0,0,-3.14159265358977,-3.14159265358977,                  65P     79
-3.14159265358977,-1.57079632679487,-1.57079632679487,                65P     80
2.26485497023532D-14,2.26485497023532D-14,1.57079632679492,           65P     81
1.57079632679492,3.14159265358982,3.14159265358982,                   65P     82
3.14159265358982,1.,0.707106781186722,1.,0.707106781186439,1.,        65P     83
0.707106781186674,1.,0.707106781186557,1.,-336.302633315612,          65P     84
169.983350775576,-42.4487496924263,-336.302633315612,                 65P     85
168.733350775576,-42.4487496924263,-337.552633315612,                 65P     86
168.733350775576,-42.4487496924263,-338.802633315612,                 65P     87
168.733350775576,-42.4487496924263,-338.802633315612,                 65P     88
169.983350775576,-42.4487496924263,-338.802633315612,                 65P     89
171.233350775576,-42.4487496924263,-337.552633315612,                 65P     90
171.233350775576,-42.4487496924263,-336.302633315612,                 65P     91
171.233350775576,-42.4487496924263,-336.302633315612,                 65P     92
169.983350775576,-42.4487496924263,-3.14159265358977,                 65P     93
3.14159265358982,0.,0.,0.;                                            65P     94
126,8,2,0,1,0,0,-3.14159265358977,-3.14159265358977,                  67P     95
-3.14159265358977,-1.57079632679487,-1.57079632679487,                67P     96
2.26485497023532D-14,2.26485497023532D-14,1.57079632679492,           67P     97
1.57079632679492,3.14159265358982,3.14159265358982,                   67P     98
3.14159265358982,1.,0.707106781186654,1.,0.707106781186508,1.,        67P     99
0.707106781186605,1.,0.707106781186557,1.,-331.170794164684,          67P    100
174.847939856783,-42.4487496924263,-331.170794164684,                 67P    101
173.597939856783,-42.4487496924263,-332.420794164684,                 67P    102
173.597939856783,-42.4487496924263,-333.670794164684,                 67P    103
173.597939856783,-42.4487496924263,-333.670794164684,                 67P    104
174.847939856783,-42.4487496924263,-333.670794164684,                 67P    105
176.097939856783,-42.4487496924263,-332.420794164684,                 67P    106
176.097939856783,-42.4487496924263,-331.170794164684,                 67P    107
176.097939856783,-42.4487496924263,-331.170794164684,                 67P    108
174.847939856783,-42.4487496924263,-3.14159265358977,                 67P    109
3.14159265358982,0.,0.,0.;                                            67P    110
126,4,2,0,0,0,0,-6.90327552082451,-6.90327552082451,                  69P    111
-6.90327552082451,-5.33247919402961,-5.33247919402961,                69P    112
-3.76168286723471,-3.76168286723471,-3.76168286723471,1.,             69P    113
0.707106781186492,1.,0.707106781186503,1.,-334.764008280765,          69P    114
174.981564891639,-42.4487496924263,-334.764008280765,                 69P    115
172.326564891639,-42.4487496924263,-337.419008280765,                 69P    116
172.326564891639,-42.4487496924263,-340.074008280765,                 69P    117
172.326564891639,-42.4487496924263,-340.074008280765,                 69P    118
174.981564891639,-42.4487496924263,-6.90327552082451,                 69P    119
-3.76168286723471,0.,0.,0.;                                           69P    120
126,4,2,0,0,0,0,-3.76168286723471,-3.76168286723471,                  71P    121
-3.76168286723471,-2.19088654043982,-2.19088654043982,                71P    122
-0.620090213644924,-0.620090213644924,-0.620090213644924,1.,          71P    123
0.707106781186513,1.,0.707106781186524,1.,-340.074008280765,          71P    124
174.981564891639,-42.4487496924263,-340.074008280765,                 71P    125
177.636564891639,-42.4487496924263,-337.419008280765,                 71P    126
177.636564891639,-42.4487496924263,-334.764008280765,                 71P    127
177.636564891639,-42.4487496924263,-334.764008280765,                 71P    128
174.981564891639,-42.4487496924263,-3.76168286723471,                 71P    129
-0.620090213644924,0.,0.,0.;                                          71P    130
126,4,2,0,0,0,0,0.620090213644905,0.620090213644905,                  73P    131
0.620090213644905,2.19088654043979,2.19088654043979,                  73P    132
3.76168286723468,3.76168286723468,3.76168286723468,1.,                73P    133
0.707106781186602,1.,0.707106781186545,1.,-334.764008280765,          73P    134
174.981564891639,-95.8487496924263,-334.764008280765,                 73P    135
172.326564891639,-95.8487496924263,-337.419008280765,                 73P    136
172.326564891639,-95.8487496924263,-340.074008280765,                 73P    137
172.326564891639,-95.8487496924263,-340.074008280765,                 73P    138
174.981564891639,-95.8487496924263,0.620090213644905,                 73P    139
3.76168286723468,0.,0.,0.;                                            73P    140
126,4,2,0,0,0,0,3.76168286723468,3.76168286723468,                    75P    141
3.76168286723468,5.33247919402959,5.33247919402959,                   75P    142
6.90327552082449,6.90327552082449,6.90327552082449,1.,                75P    143
0.707106781186542,1.,0.707106781186524,1.,-340.074008280765,          75P    144
174.981564891639,-95.8487496924263,-340.074008280765,                 75P    145
177.636564891639,-95.8487496924263,-337.419008280765,                 75P    146
177.636564891639,-95.8487496924263,-334.764008280765,                 75P    147
177.636564891639,-95.8487496924263,-334.764008280765,                 75P    148
174.981564891639,-95.8487496924263,3.76168286723468,                  75P    149
6.90327552082449,0.,0.,0.;                                            75P    150
126,1,1,0,0,1,0,1.60000000000249,1.60000000000249,                    77P    151
5.76000000000248,5.76000000000248,1.,1.,-341.16722239682,             77P    152
175.115189926503,-42.4487496924262,-341.16722239682,                  77P    153
175.115189926503,-37.2487496924263,1.60000000000249,                  77P    154
5.76000000000248,0.,0.,0.;                                            77P    155
126,8,2,0,1,0,0,-3.1415926535898,-3.1415926535898,                    79P    156
-3.1415926535898,-1.5707963267949,-1.5707963267949,                   79P    157
-5.77315972805081D-15,-5.77315972805081D-15,1.57079632679489,         79P    158
1.57079632679489,3.14159265358979,3.14159265358979,                   79P    159
3.14159265358979,1.,0.707106781186581,1.,0.707106781186581,1.,        79P    160
0.707106781186581,1.,0.707106781186581,1.,-341.16722239682,           79P    161
175.115189926503,-37.2487496924263,-341.16722239682,                  79P    162
173.865189926503,-37.2487496924263,-342.41722239682,                  79P    163
173.865189926503,-37.2487496924263,-343.66722239682,                  79P    164
173.865189926503,-37.2487496924262,-343.66722239682,                  79P    165
175.115189926503,-37.2487496924262,-343.66722239682,                  79P    166
176.365189926503,-37.2487496924262,-342.41722239682,                  79P    167
176.365189926503,-37.2487496924263,-341.16722239682,                  79P    168
176.365189926503,-37.2487496924263,-341.16722239682,                  79P    169
175.115189926503,-37.2487496924263,-3.1415926535898,                  79P    170
3.14159265358979,0.,0.,0.;                                            79P    171
126,1,1,0,0,1,0,1.60000000000249,1.60000000000249,                    81P    172
5.76000000000248,5.76000000000248,1.,1.,-336.035383245892,            81P    173
179.979779007711,-42.4487496924263,-336.035383245892,                 81P    174
179.979779007711,-37.2487496924263,1.60000000000249,                  81P    175
5.76000000000248,0.,0.,0.;                                            81P    176
126,8,2,0,1,0,0,-3.1415926535898,-3.1415926535898,                    83P    177
-3.1415926535898,-1.5707963267949,-1.5707963267949,                   83P    178
-5.77315972805081D-15,-5.77315972805081D-15,1.57079632679489,         83P    179
1.57079632679489,3.14159265358979,3.14159265358979,                   83P    180
3.14159265358979,1.,0.707106781186581,1.,0.707106781186581,1.,        83P    181
0.707106781186581,1.,0.707106781186581,1.,-336.035383245892,          83P    182
179.979779007711,-37.2487496924263,-336.035383245892,                 83P    183
178.729779007711,-37.2487496924263,-337.285383245892,                 83P    184
178.729779007711,-37.2487496924263,-338.535383245892,                 83P    185
178.729779007711,-37.2487496924263,-338.535383245892,                 83P    186
179.979779007711,-37.2487496924263,-338.535383245892,                 83P    187
181.229779007711,-37.2487496924263,-337.285383245892,                 83P    188
181.229779007711,-37.2487496924263,-336.035383245892,                 83P    189
181.229779007711,-37.2487496924263,-336.035383245892,                 83P    190
179.979779007711,-37.2487496924263,-3.1415926535898,                  83P    191
3.14159265358979,0.,0.,0.;                                            83P    192
126,1,1,0,0,1,0,1.6000000000025,1.6000000000025,                      85P    193
5.76000000000248,5.76000000000248,1.,1.,-336.302633315612,            85P    194
169.983350775576,-42.4487496924263,-336.302633315612,                 85P    195
169.983350775576,-37.2487496924263,1.6000000000025,                   85P    196
5.76000000000248,0.,0.,0.;                                            85P    197
126,8,2,0,1,0,0,-3.1415926535898,-3.1415926535898,                    87P    198
-3.1415926535898,-1.5707963267949,-1.5707963267949,                   87P    199
-5.77315972805081D-15,-5.77315972805081D-15,1.57079632679489,         87P    200
1.57079632679489,3.14159265358979,3.14159265358979,                   87P    201
3.14159265358979,1.,0.707106781186581,1.,0.707106781186581,1.,        87P    202
0.707106781186581,1.,0.707106781186581,1.,-336.302633315612,          87P    203
169.983350775576,-37.2487496924263,-336.302633315612,                 87P    204
168.733350775576,-37.2487496924263,-337.552633315612,                 87P    205
168.733350775576,-37.2487496924263,-338.802633315612,                 87P    206
168.733350775576,-37.2487496924263,-338.802633315612,                 87P    207
169.983350775576,-37.2487496924263,-338.802633315612,                 87P    208
171.233350775576,-37.2487496924263,-337.552633315612,                 87P    209
171.233350775576,-37.2487496924263,-336.302633315612,                 87P    210
171.233350775576,-37.2487496924263,-336.302633315612,                 87P    211
169.983350775576,-37.2487496924263,-3.1415926535898,                  87P    212
3.14159265358979,0.,0.,0.;                                            87P    213
126,1,1,0,0,1,0,1.6000000000025,1.6000000000025,                      89P    214
5.76000000000249,5.76000000000249,1.,1.,-331.170794164684,            89P    215
174.847939856783,-42.4487496924263,-331.170794164684,                 89P    216
174.847939856783,-37.2487496924264,1.6000000000025,                   89P    217
5.76000000000249,0.,0.,0.;                                            89P    218
126,8,2,0,1,0,0,-3.1415926535898,-3.1415926535898,                    91P    219
-3.1415926535898,-1.5707963267949,-1.5707963267949,                   91P    220
-5.77315972805081D-15,-5.77315972805081D-15,1.57079632679489,         91P    221
1.57079632679489,3.14159265358979,3.14159265358979,                   91P    222
3.14159265358979,1.,0.707106781186581,1.,0.707106781186581,1.,        91P    223
0.707106781186581,1.,0.707106781186581,1.,-331.170794164684,          91P    224
174.847939856783,-37.2487496924264,-331.170794164684,                 91P    225
173.597939856783,-37.2487496924264,-332.420794164684,                 91P    226
173.597939856783,-37.2487496924264,-333.670794164684,                 91P    227
173.597939856783,-37.2487496924263,-333.670794164684,                 91P    228
174.847939856783,-37.2487496924263,-333.670794164684,                 91P    229
176.097939856783,-37.2487496924263,-332.420794164684,                 91P    230
176.097939856783,-37.2487496924264,-331.170794164684,                 91P    231
176.097939856783,-37.2487496924264,-331.170794164684,                 91P    232
174.847939856783,-37.2487496924264,-3.1415926535898,                  91P    233
3.14159265358979,0.,0.,0.;                                            91P    234
126,1,1,0,0,1,0,-0.519999999999658,-0.519999999999658,                93P    235
1.53546146034012D-15,1.53546146034012D-15,1.,1.,                      93P    236
-347.419008280757,174.981564891641,-42.4487496924262,                 93P    237
-347.419008280757,174.981564891641,-37.2487496924296,                 93P    238
-0.519999999999658,1.53546146034012D-15,0.,0.,0.;                     93P    239
126,8,2,0,1,0,0,-3.14159265358979,-3.14159265358979,                  95P    240
-3.14159265358979,-1.5707963267949,-1.5707963267949,0.,0.,            95P    241
1.5707963267949,1.5707963267949,3.14159265358979,                     95P    242
3.14159265358979,3.14159265358979,1.,0.70710678118655,1.,             95P    243
0.70710678118656,1.,0.70710678118655,1.,0.70710678118656,1.,          95P    244
-347.419008280757,174.981564891641,-37.2487496924296,                 95P    245
-347.419008280757,164.981564891641,-37.2487496924296,                 95P    246
-337.419008280757,164.981564891641,-37.2487496924297,                 95P    247
-327.419008280757,164.981564891641,-37.2487496924298,                 95P    248
-327.419008280757,174.981564891641,-37.2487496924298,                 95P    249
-327.419008280757,184.981564891641,-37.2487496924298,                 95P    250
-337.419008280757,184.981564891641,-37.2487496924297,                 95P    251
-347.419008280757,184.981564891641,-37.2487496924296,                 95P    252
-347.419008280757,174.981564891641,-37.2487496924296,                 95P    253
-3.14159265358979,3.14159265358979,0.,0.,0.;                          95P    254
126,1,1,0,0,1,0,-13.2580037664781,-13.2580037664781,                  97P    255
6.85499058380402,6.85499058380402,1.,1.,-340.074008280766,            97P    256
174.981564891639,-95.8487496924263,-340.074008280765,                 97P    257
174.981564891639,-42.4487496924263,-13.2580037664781,                 97P    258
6.85499058380402,0.,0.,0.;                                            97P    259
128,1,1,1,1,0,0,1,0,0,-0.556555555555106,-0.556555555555106,          99P    260
0.556555555556015,0.556555555556015,-0.0555555555556838,              99P    261
-0.0555555555556838,1.05755555555543,1.05755555555543,1.,1.,1.,       99P    262
1.,-347.437008280757,184.999564891641,-42.4487496924262,              99P    263
-327.401008280757,184.999564891641,-42.4487496924263,                 99P    264
-347.437008280757,164.963564891641,-42.4487496924263,                 99P    265
-327.401008280757,164.963564891641,-42.4487496924264,                 99P    266
-0.556555555555106,0.556555555556015,-0.0555555555556838,             99P    267
1.05755555555543;                                                     99P    268
128,1,1,1,1,0,0,1,0,0,-0.148499999999998,-0.148499999999998,         101P    269
0.148499999999998,0.148499999999998,-0.296999999999996,              101P    270
-0.296999999999996,4.30428262476745D-15,4.30428262476745D-15,1.,     101P    271
1.,1.,1.,-340.092008280765,177.654564891639,-95.8487496924263,       101P    272
-334.746008280765,177.654564891639,-95.8487496924263,                101P    273
-340.092008280765,172.308564891639,-95.8487496924263,                101P    274
-334.746008280765,172.308564891639,-95.8487496924263,                101P    275
-0.148499999999998,0.148499999999998,-0.296999999999996,             101P    276
4.30428262476745D-15;                                                101P    277
128,1,8,1,2,0,1,0,0,1,1.60000000000249,1.60000000000249,             103P    278
5.76000000000248,5.76000000000248,-3.14159265358979,                 103P    279
-3.14159265358979,-3.14159265358979,-1.5707963267949,                103P    280
-1.5707963267949,0.,0.,1.5707963267949,1.5707963267949,              103P    281
3.14159265358979,3.14159265358979,3.14159265358979,1.,1.,            103P    282
0.707106781186548,0.707106781186548,1.,1.,0.707106781186548,         103P    283
0.707106781186548,1.,1.,0.707106781186548,0.707106781186548,1.,      103P    284
1.,0.707106781186548,0.707106781186548,1.,1.,-341.16722239682,       103P    285
175.115189926503,-42.4487496924262,-341.16722239682,                 103P    286
175.115189926503,-37.2487496924263,-341.16722239682,                 103P    287
176.365189926503,-42.4487496924262,-341.16722239682,                 103P    288
176.365189926503,-37.2487496924263,-342.41722239682,                 103P    289
176.365189926503,-42.4487496924262,-342.41722239682,                 103P    290
176.365189926503,-37.2487496924263,-343.66722239682,                 103P    291
176.365189926503,-42.4487496924262,-343.66722239682,                 103P    292
176.365189926503,-37.2487496924262,-343.66722239682,                 103P    293
175.115189926503,-42.4487496924262,-343.66722239682,                 103P    294
175.115189926503,-37.2487496924262,-343.66722239682,                 103P    295
173.865189926503,-42.4487496924262,-343.66722239682,                 103P    296
173.865189926503,-37.2487496924262,-342.41722239682,                 103P    297
173.865189926503,-42.4487496924262,-342.41722239682,                 103P    298
173.865189926503,-37.2487496924263,-341.16722239682,                 103P    299
173.865189926503,-42.4487496924262,-341.16722239682,                 103P    300
173.865189926503,-37.2487496924263,-341.16722239682,                 103P    301
175.115189926503,-42.4487496924262,-341.16722239682,                 103P    302
175.115189926503,-37.2487496924263,1.60000000000249,                 103P    303
5.76000000000248,-3.14159265358979,3.14159265358979;                 103P    304
128,1,8,1,2,0,1,0,0,1,1.60000000000249,1.60000000000249,             105P    305
5.76000000000248,5.76000000000248,-3.14159265358979,                 105P    306
-3.14159265358979,-3.14159265358979,-1.5707963267949,                105P    307
-1.5707963267949,0.,0.,1.5707963267949,1.5707963267949,              105P    308
3.14159265358979,3.14159265358979,3.14159265358979,1.,1.,            105P    309
0.707106781186548,0.707106781186548,1.,1.,0.707106781186548,         105P    310
0.707106781186548,1.,1.,0.707106781186548,0.707106781186548,1.,      105P    311
1.,0.707106781186548,0.707106781186548,1.,1.,-336.035383245892,      105P    312
179.979779007711,-42.4487496924263,-336.035383245892,                105P    313
179.979779007711,-37.2487496924263,-336.035383245892,                105P    314
181.229779007711,-42.4487496924263,-336.035383245892,                105P    315
181.229779007711,-37.2487496924263,-337.285383245892,                105P    316
181.229779007711,-42.4487496924263,-337.285383245892,                105P    317
181.229779007711,-37.2487496924263,-338.535383245892,                105P    318
181.229779007711,-42.4487496924263,-338.535383245892,                105P    319
181.229779007711,-37.2487496924263,-338.535383245892,                105P    320
179.979779007711,-42.4487496924263,-338.535383245892,                105P    321
179.979779007711,-37.2487496924263,-338.535383245892,                105P    322
178.729779007711,-42.4487496924263,-338.535383245892,                105P    323
178.729779007711,-37.2487496924263,-337.285383245892,                105P    324
178.729779007711,-42.4487496924263,-337.285383245892,                105P    325
178.729779007711,-37.2487496924263,-336.035383245892,                105P    326
178.729779007711,-42.4487496924263,-336.035383245892,                105P    327
178.729779007711,-37.2487496924263,-336.035383245892,                105P    328
179.979779007711,-42.4487496924263,-336.035383245892,                105P    329
179.979779007711,-37.2487496924263,1.60000000000249,                 105P    330
5.76000000000248,-3.14159265358979,3.14159265358979;                 105P    331
128,1,8,1,2,0,1,0,0,1,1.6000000000025,1.6000000000025,               107P    332
5.76000000000248,5.76000000000248,-3.14159265358979,                 107P    333
-3.14159265358979,-3.14159265358979,-1.5707963267949,                107P    334
-1.5707963267949,0.,0.,1.5707963267949,1.5707963267949,              107P    335
3.14159265358979,3.14159265358979,3.14159265358979,1.,1.,            107P    336
0.707106781186548,0.707106781186548,1.,1.,0.707106781186548,         107P    337
0.707106781186548,1.,1.,0.707106781186548,0.707106781186548,1.,      107P    338
1.,0.707106781186548,0.707106781186548,1.,1.,-336.302633315612,      107P    339
169.983350775576,-42.4487496924263,-336.302633315612,                107P    340
169.983350775576,-37.2487496924263,-336.302633315612,                107P    341
171.233350775576,-42.4487496924263,-336.302633315612,                107P    342
171.233350775576,-37.2487496924263,-337.552633315612,                107P    343
171.233350775576,-42.4487496924263,-337.552633315612,                107P    344
171.233350775576,-37.2487496924263,-338.802633315612,                107P    345
171.233350775576,-42.4487496924263,-338.802633315612,                107P    346
171.233350775576,-37.2487496924263,-338.802633315612,                107P    347
169.983350775576,-42.4487496924263,-338.802633315612,                107P    348
169.983350775576,-37.2487496924263,-338.802633315612,                107P    349
168.733350775576,-42.4487496924263,-338.802633315612,                107P    350
168.733350775576,-37.2487496924263,-337.552633315612,                107P    351
168.733350775576,-42.4487496924263,-337.552633315612,                107P    352
168.733350775576,-37.2487496924263,-336.302633315612,                107P    353
168.733350775576,-42.4487496924263,-336.302633315612,                107P    354
168.733350775576,-37.2487496924263,-336.302633315612,                107P    355
169.983350775576,-42.4487496924263,-336.302633315612,                107P    356
169.983350775576,-37.2487496924263,1.6000000000025,                  107P    357
5.76000000000248,-3.14159265358979,3.14159265358979;                 107P    358
128,1,8,1,2,0,1,0,0,1,1.6000000000025,1.6000000000025,               109P    359
5.76000000000249,5.76000000000249,-3.14159265358979,                 109P    360
-3.14159265358979,-3.14159265358979,-1.5707963267949,                109P    361
-1.5707963267949,0.,0.,1.5707963267949,1.5707963267949,              109P    362
3.14159265358979,3.14159265358979,3.14159265358979,1.,1.,            109P    363
0.707106781186548,0.707106781186548,1.,1.,0.707106781186548,         109P    364
0.707106781186548,1.,1.,0.707106781186548,0.707106781186548,1.,      109P    365
1.,0.707106781186548,0.707106781186548,1.,1.,-331.170794164684,      109P    366
174.847939856783,-42.4487496924263,-331.170794164684,                109P    367
174.847939856783,-37.2487496924264,-331.170794164684,                109P    368
176.097939856783,-42.4487496924263,-331.170794164684,                109P    369
176.097939856783,-37.2487496924264,-332.420794164684,                109P    370
176.097939856783,-42.4487496924263,-332.420794164684,                109P    371
176.097939856783,-37.2487496924264,-333.670794164684,                109P    372
176.097939856783,-42.4487496924263,-333.670794164684,                109P    373
176.097939856783,-37.2487496924263,-333.670794164684,                109P    374
174.847939856783,-42.4487496924263,-333.670794164684,                109P    375
174.847939856783,-37.2487496924263,-333.670794164684,                109P    376
173.597939856783,-42.4487496924263,-333.670794164684,                109P    377
173.597939856783,-37.2487496924263,-332.420794164684,                109P    378
173.597939856783,-42.4487496924263,-332.420794164684,                109P    379
173.597939856783,-37.2487496924264,-331.170794164684,                109P    380
173.597939856783,-42.4487496924263,-331.170794164684,                109P    381
173.597939856783,-37.2487496924264,-331.170794164684,                109P    382
174.847939856783,-42.4487496924263,-331.170794164684,                109P    383
174.847939856783,-37.2487496924264,1.6000000000025,                  109P    384
5.76000000000249,-3.14159265358979,3.14159265358979;                 109P    385
128,1,8,1,2,0,1,0,0,1,-1.53546146034012D-15,                         111P    386
-1.53546146034012D-15,0.519999999999658,0.519999999999658,           111P    387
-3.14159265358979,-3.14159265358979,-3.14159265358979,               111P    388
-1.5707963267949,-1.5707963267949,0.,0.,1.5707963267949,             111P    389
1.5707963267949,3.14159265358979,3.14159265358979,                   111P    390
3.14159265358979,1.,1.,0.707106781186548,0.707106781186548,1.,       111P    391
1.,0.707106781186548,0.707106781186548,1.,1.,0.707106781186548,      111P    392
0.707106781186548,1.,1.,0.707106781186548,0.707106781186548,1.,      111P    393
1.,-347.419008280757,174.981564891641,-42.4487496924262,             111P    394
-347.419008280757,174.981564891641,-37.2487496924296,                111P    395
-347.419008280757,184.981564891641,-42.4487496924262,                111P    396
-347.419008280757,184.981564891641,-37.2487496924296,                111P    397
-337.419008280757,184.981564891641,-42.4487496924263,                111P    398
-337.419008280757,184.981564891641,-37.2487496924297,                111P    399
-327.419008280757,184.981564891641,-42.4487496924264,                111P    400
-327.419008280757,184.981564891641,-37.2487496924298,                111P    401
-327.419008280757,174.981564891641,-42.4487496924264,                111P    402
-327.419008280757,174.981564891641,-37.2487496924298,                111P    403
-327.419008280757,164.981564891641,-42.4487496924264,                111P    404
-327.419008280757,164.981564891641,-37.2487496924298,                111P    405
-337.419008280757,164.981564891641,-42.4487496924263,                111P    406
-337.419008280757,164.981564891641,-37.2487496924297,                111P    407
-347.419008280757,164.981564891641,-42.4487496924262,                111P    408
-347.419008280757,164.981564891641,-37.2487496924296,                111P    409
-347.419008280757,174.981564891641,-42.4487496924262,                111P    410
-347.419008280757,174.981564891641,-37.2487496924296,                111P    411
-1.53546146034012D-15,0.519999999999658,-3.14159265358979,           111P    412
3.14159265358979;                                                    111P    413
128,1,1,1,1,0,0,1,0,0,-0.667666666666121,-0.667666666666121,         113P    414
0.667666666667222,0.667666666667222,-0.667666666666828,              113P    415
-0.667666666666828,0.667666666666515,0.667666666666515,1.,1.,1.,     113P    416
1.,-327.404008280757,184.996564891641,-37.2487496924263,             113P    417
-347.434008280757,184.996564891641,-37.2487496924263,                113P    418
-327.404008280757,164.966564891641,-37.2487496924264,                113P    419
-347.434008280757,164.966564891641,-37.2487496924263,                113P    420
-0.667666666666121,0.667666666667222,-0.667666666666828,             113P    421
0.667666666666515;                                                   113P    422
128,1,8,1,2,0,1,0,0,1,-6.85499058380402,-6.85499058380402,           115P    423
13.2580037664781,13.2580037664781,-3.14159265358979,                 115P    424
-3.14159265358979,-3.14159265358979,-1.5707963267949,                115P    425
-1.5707963267949,0.,0.,1.5707963267949,1.5707963267949,              115P    426
3.14159265358979,3.14159265358979,3.14159265358979,1.,1.,            115P    427
0.707106781186548,0.707106781186548,1.,1.,0.707106781186548,         115P    428
0.707106781186548,1.,1.,0.707106781186548,0.707106781186548,1.,      115P    429
1.,0.707106781186548,0.707106781186548,1.,1.,-340.074008280766,      115P    430
174.981564891639,-95.8487496924263,-340.074008280765,                115P    431
174.981564891639,-42.4487496924263,-340.074008280766,                115P    432
177.636564891639,-95.8487496924263,-340.074008280765,                115P    433
177.636564891639,-42.4487496924263,-337.419008280766,                115P    434
177.636564891639,-95.8487496924263,-337.419008280765,                115P    435
177.636564891639,-42.4487496924263,-334.764008280765,                115P    436
177.636564891639,-95.8487496924263,-334.764008280765,                115P    437
177.636564891639,-42.4487496924263,-334.764008280765,                115P    438
174.981564891639,-95.8487496924263,-334.764008280765,                115P    439
174.981564891639,-42.4487496924263,-334.764008280765,                115P    440
172.326564891639,-95.8487496924263,-334.764008280765,                115P    441
172.326564891639,-42.4487496924263,-337.419008280766,                115P    442
172.326564891639,-95.8487496924263,-337.419008280765,                115P    443
172.326564891639,-42.4487496924263,-340.074008280766,                115P    444
172.326564891639,-95.8487496924263,-340.074008280765,                115P    445
172.326564891639,-42.4487496924263,-340.074008280766,                115P    446
174.981564891639,-95.8487496924263,-340.074008280765,                115P    447
174.981564891639,-42.4487496924263,-6.85499058380402,                115P    448
13.2580037664781,-3.14159265358979,3.14159265358979;                 115P    449
502,14,-347.419008280757,174.981564891641,-42.4487496924296,         117P    450
-341.16722239682,175.115189926503,-42.4487496924294,                 117P    451
-336.035383245892,179.979779007711,-42.4487496924294,                117P    452
-336.302633315612,169.983350775576,-42.4487496924294,                117P    453
-331.170794164684,174.847939856783,-42.4487496924295,                117P    454
-334.764008280765,174.981564891639,-42.4487496924263,                117P    455
-340.074008280765,174.981564891639,-42.4487496924263,                117P    456
-334.764008280765,174.981564891639,-95.8487496924263,                117P    457
-340.074008280766,174.981564891639,-95.8487496924263,                117P    458
-341.16722239682,175.115189926503,-37.2487496924263,                 117P    459
-336.035383245892,179.979779007711,-37.2487496924263,                117P    460
-336.302633315612,169.983350775576,-37.2487496924263,                117P    461
-331.170794164684,174.847939856783,-37.2487496924264,                117P    462
-347.419008280757,174.981564891641,-37.2487496924296;                117P    463
504,20,59,117,1,117,1,61,117,2,117,2,63,117,3,117,3,65,117,4,        119P    464
117,4,67,117,5,117,5,69,117,6,117,7,71,117,7,117,6,73,117,8,117,     119P    465
9,75,117,9,117,8,77,117,2,117,10,79,117,10,117,10,81,117,3,117,      119P    466
11,83,117,11,117,11,85,117,4,117,12,87,117,12,117,12,89,117,5,       119P    467
117,13,91,117,13,117,13,93,117,1,117,14,95,117,14,117,14,97,117,     119P    468
9,117,7;                                                             119P    469
406,1,5HBody1;                                                       121P    470
314,96.4705882352941,96.4705882352941,95.2941176470588,19HOpaque     123P    471
(246,246,243);                                                       123P    472
314,62.7450980392157,62.7450980392157,62.7450980392157,13HSteel      125P    473
- Satin;                                                             125P    474
S      1G      3D    126P    474                                        T      1
