                                                                        S      1
,,15HFusionComponent,12H3 ΦΟΡΕΣ,7Hunknown,7Hunknown,32,38,7,99,15,,G      1
1.,2,2HMM,1,0.08,15H20250527.024844,0.01,10000.,7Hunknown,7Hunknown,11, G      2
0,;                                                                     G      3
     186       1                                                00000000D      1
     186            -123       1       0                               0D      2
     514       2                                                00010000D      3
     514                       1       1                               0D      4
     510       3                                                00010000D      5
     510            -123       1       1                               0D      6
     510       4                                                00010000D      7
     510            -123       1       1                               0D      8
     510       5                                                00010000D      9
     510            -123       1       1                               0D     10
     510       6                                                00010000D     11
     510            -123       1       1                               0D     12
     510       7                                                00010000D     13
     510            -123       1       1                               0D     14
     510       8                                                00010000D     15
     510            -123       1       1                               0D     16
     510       9                                                00010000D     17
     510            -123       1       1                               0D     18
     510      10                                                00010000D     19
     510            -123       1       1                               0D     20
     510      11                                                00010000D     21
     510            -123       1       1                               0D     22
     508      12                                                00010000D     23
     508                       1       1                               0D     24
     508      13                                                00010000D     25
     508                       1       1                               0D     26
     508      14                                                00010000D     27
     508                       1       1                               0D     28
     508      15                                                00010000D     29
     508                       1       1                               0D     30
     508      16                                                00010000D     31
     508                       1       1                               0D     32
     508      17                                                00010000D     33
     508                       1       1                               0D     34
     508      18                                                00010000D     35
     508                       1       1                               0D     36
     508      19                                                00010000D     37
     508                       1       1                               0D     38
     508      20                                                00010000D     39
     508                       1       1                               0D     40
     508      21                                                00010000D     41
     508                       1       1                               0D     42
     508      22                                                00010000D     43
     508                       2       1                               0D     44
     508      24                                                00010000D     45
     508                       1       1                               0D     46
     508      25                                                00010000D     47
     508                       1       1                               0D     48
     508      26                                                00010000D     49
     508                       1       1                               0D     50
     508      27                                                00010000D     51
     508                       1       1                               0D     52
     508      28                                                00010000D     53
     508                       1       1                               0D     54
     508      29                                                00010000D     55
     508                       1       1                               0D     56
     508      30                                                00010000D     57
     508                       1       1                               0D     58
     126      31                                                00010000D     59
     126       0              15       0                               0D     60
     126      46                                                00010000D     61
     126       0               5       0                               0D     62
     126      51                                                00010000D     63
     126       0              16       0                               0D     64
     126      67                                                00010000D     65
     126       0              15       0                               0D     66
     126      82                                                00010000D     67
     126       0               5       0                               0D     68
     126      87                                                00010000D     69
     126       0              16       0                               0D     70
     126     103                                                00010000D     71
     126       0              16       0                               0D     72
     126     119                                                00010000D     73
     126       0               5       0                               0D     74
     126     124                                                00010000D     75
     126       0              16       0                               0D     76
     126     140                                                00010000D     77
     126       0              16       0                               0D     78
     126     156                                                00010000D     79
     126       0               5       0                               0D     80
     126     161                                                00010000D     81
     126       0              16       0                               0D     82
     126     177                                                00010000D     83
     126       0              15       0                               0D     84
     126     192                                                00010000D     85
     126       0               5       0                               0D     86
     126     197                                                00010000D     87
     126       0              15       0                               0D     88
     126     212                                                00010000D     89
     126       0              10       0                               0D     90
     126     222                                                00010000D     91
     126       0               9       0                               0D     92
     126     231                                                00010000D     93
     126       0               5       0                               0D     94
     126     236                                                00010000D     95
     126       0              10       0                               0D     96
     126     246                                                00010000D     97
     126       0               9       0                               0D     98
     128     255                                                00010000D     99
     128       0    -123      27       0                               0D    100
     128     282                                                00010000D    101
     128       0    -123      27       0                               0D    102
     128     309                                                00010000D    103
     128       0    -123      27       0                               0D    104
     128     336                                                00010000D    105
     128       0    -123      27       0                               0D    106
     128     363                                                00010000D    107
     128       0    -123      28       0                               0D    108
     128     391                                                00010000D    109
     128       0    -123       9       0                               0D    110
     128     400                                                00010000D    111
     128       0    -123      27       0                               0D    112
     128     427                                                00010000D    113
     128       0    -123       9       0                               0D    114
     128     436                                                00010000D    115
     128       0    -123       9       0                               0D    116
     502     445                                                00010000D    117
     502                      14       1                               0D    118
     504     459                                                00010001D    119
     504                       6       1                               0D    120
     406     465                                                00000000D    121
     406                       1      15                               0D    122
     314     466                                                00000200D    123
     314                       2       0                               0D    124
     314     468                                                00000200D    125
     314                       2       0                               0D    126
186,3,1,0,0,1,121;                                                     1P      1
514,9,5,1,7,1,9,1,11,1,13,1,15,1,17,1,19,1,21,1;                       3P      2
510,99,1,1,23;                                                         5P      3
510,101,1,1,25;                                                        7P      4
510,103,1,1,27;                                                        9P      5
510,105,1,1,29;                                                       11P      6
510,107,1,1,31;                                                       13P      7
510,109,5,1,33,35,37,39,41;                                           15P      8
510,111,1,1,43;                                                       17P      9
510,113,1,1,45;                                                       19P     10
510,115,6,1,47,49,51,53,55,57;                                        21P     11
508,4,0,119,1,0,0,0,119,2,1,0,0,119,3,0,0,0,119,2,0,0;                23P     12
508,4,0,119,4,0,0,0,119,5,1,0,0,119,6,0,0,0,119,5,0,0;                25P     13
508,4,0,119,7,0,0,0,119,8,1,0,0,119,9,0,0,0,119,8,0,0;                27P     14
508,4,0,119,10,0,0,0,119,11,1,0,0,119,12,0,0,0,119,11,0,0;            29P     15
508,4,0,119,13,0,0,0,119,14,1,0,0,119,15,0,0,0,119,14,0,0;            31P     16
508,1,0,119,15,1,0;                                                   33P     17
508,1,0,119,3,1,0;                                                    35P     18
508,1,0,119,6,1,0;                                                    37P     19
508,1,0,119,9,1,0;                                                    39P     20
508,1,0,119,12,1,0;                                                   41P     21
508,6,0,119,16,0,0,0,119,17,0,0,0,119,18,1,0,0,119,19,0,0,0,119,      43P     22
20,0,0,0,119,18,0,0;                                                  43P     23
508,2,0,119,16,1,0,0,119,17,1,0;                                      45P     24
508,1,0,119,13,1,0;                                                   47P     25
508,1,0,119,1,1,0;                                                    49P     26
508,1,0,119,4,1,0;                                                    51P     27
508,1,0,119,7,1,0;                                                    53P     28
508,1,0,119,10,1,0;                                                   55P     29
508,2,0,119,19,1,0,0,119,20,1,0;                                      57P     30
126,8,2,0,1,0,0,-3.14159265358979,-3.14159265358979,                  59P     31
-3.14159265358979,-1.57079632679489,-1.57079632679489,                59P     32
5.77315972805081D-15,5.77315972805081D-15,1.5707963267949,            59P     33
1.5707963267949,3.1415926535898,3.1415926535898,3.1415926535898,      59P     34
1.,0.707106781186568,1.,0.707106781186563,1.,0.707106781186565,       59P     35
1.,0.707106781186561,1.,-169.769270412275,-19.9422641208254,          59P     36
-74.6731457900657,-169.769270412275,-21.1922641208254,                59P     37
-74.6731457900657,-171.019270412275,-21.1922641208254,                59P     38
-74.6731457900657,-172.269270412275,-21.1922641208254,                59P     39
-74.6731457900658,-172.269270412275,-19.9422641208254,                59P     40
-74.6731457900658,-172.269270412275,-18.6922641208254,                59P     41
-74.6731457900658,-171.019270412275,-18.6922641208254,                59P     42
-74.6731457900657,-169.769270412275,-18.6922641208254,                59P     43
-74.6731457900657,-169.769270412275,-19.9422641208254,                59P     44
-74.6731457900657,-3.14159265358979,3.1415926535898,0.,0.,0.;         59P     45
126,1,1,0,0,1,0,2.49692677550114D-12,2.49692677550114D-12,            61P     46
5.76000000000249,5.76000000000249,1.,1.,-169.769270412275,            61P     47
-19.9422641208254,-74.6731457900657,-169.769270412275,                61P     48
-19.9422641208254,-81.8731457900657,2.49692677550114D-12,             61P     49
5.76000000000249,0.,0.,0.;                                            61P     50
126,8,2,0,1,0,0,-3.1415926535898,-3.1415926535898,                    63P     51
-3.1415926535898,-1.5707963267949,-1.5707963267949,                   63P     52
-5.77315972805081D-15,-5.77315972805081D-15,1.57079632679489,         63P     53
1.57079632679489,3.14159265358979,3.14159265358979,                   63P     54
3.14159265358979,1.,0.707106781186561,1.,0.707106781186565,1.,        63P     55
0.707106781186563,1.,0.707106781186568,1.,-169.769270412275,          63P     56
-19.9422641208254,-81.8731457900657,-169.769270412275,                63P     57
-18.6922641208254,-81.8731457900657,-171.019270412275,                63P     58
-18.6922641208253,-81.8731457900657,-172.269270412275,                63P     59
-18.6922641208253,-81.8731457900657,-172.269270412275,                63P     60
-19.9422641208253,-81.8731457900657,-172.269270412275,                63P     61
-21.1922641208253,-81.8731457900657,-171.019270412275,                63P     62
-21.1922641208253,-81.8731457900657,-169.769270412275,                63P     63
-21.1922641208254,-81.8731457900657,-169.769270412275,                63P     64
-19.9422641208254,-81.8731457900657,-3.1415926535898,                 63P     65
3.14159265358979,0.,0.,0.;                                            63P     66
126,8,2,0,1,0,0,-3.14159265358979,-3.14159265358979,                  65P     67
-3.14159265358979,-1.57079632679489,-1.57079632679489,                65P     68
5.77315972805081D-15,5.77315972805081D-15,1.5707963267949,            65P     69
1.5707963267949,3.1415926535898,3.1415926535898,3.1415926535898,      65P     70
1.,0.707106781186566,1.,0.707106781186564,1.,0.707106781186566,       65P     71
1.,0.707106781186564,1.,-164.637431261347,-24.8068532020331,          65P     72
-74.6731457900657,-164.637431261347,-26.0568532020331,                65P     73
-74.6731457900657,-165.887431261347,-26.0568532020331,                65P     74
-74.6731457900657,-167.137431261347,-26.0568532020331,                65P     75
-74.6731457900657,-167.137431261347,-24.8068532020331,                65P     76
-74.6731457900657,-167.137431261347,-23.5568532020331,                65P     77
-74.6731457900657,-165.887431261347,-23.5568532020331,                65P     78
-74.6731457900657,-164.637431261347,-23.5568532020331,                65P     79
-74.6731457900657,-164.637431261347,-24.8068532020331,                65P     80
-74.6731457900657,-3.14159265358979,3.1415926535898,0.,0.,0.;         65P     81
126,1,1,0,0,1,0,2.49692677550114D-12,2.49692677550114D-12,            67P     82
5.76000000000248,5.76000000000248,1.,1.,-164.637431261347,            67P     83
-24.8068532020331,-74.6731457900657,-164.637431261347,                67P     84
-24.8068532020331,-81.8731457900657,2.49692677550114D-12,             67P     85
5.76000000000248,0.,0.,0.;                                            67P     86
126,8,2,0,1,0,0,-3.1415926535898,-3.1415926535898,                    69P     87
-3.1415926535898,-1.5707963267949,-1.5707963267949,                   69P     88
-5.77315972805081D-15,-5.77315972805081D-15,1.57079632679489,         69P     89
1.57079632679489,3.14159265358979,3.14159265358979,                   69P     90
3.14159265358979,1.,0.707106781186564,1.,0.707106781186566,1.,        69P     91
0.707106781186564,1.,0.707106781186566,1.,-164.637431261347,          69P     92
-24.8068532020331,-81.8731457900657,-164.637431261347,                69P     93
-23.5568532020331,-81.8731457900657,-165.887431261347,                69P     94
-23.5568532020331,-81.8731457900657,-167.137431261347,                69P     95
-23.556853202033,-81.8731457900657,-167.137431261347,                 69P     96
-24.806853202033,-81.8731457900657,-167.137431261347,                 69P     97
-26.056853202033,-81.8731457900657,-165.887431261347,                 69P     98
-26.0568532020331,-81.8731457900657,-164.637431261347,                69P     99
-26.0568532020331,-81.8731457900657,-164.637431261347,                69P    100
-24.8068532020331,-81.8731457900657,-3.1415926535898,                 69P    101
3.14159265358979,0.,0.,0.;                                            69P    102
126,8,2,0,1,0,0,-3.14159265358982,-3.14159265358982,                  71P    103
-3.14159265358982,-1.57079632679492,-1.57079632679492,                71P    104
-2.26485497023532D-14,-2.26485497023532D-14,1.57079632679487,         71P    105
1.57079632679487,3.14159265358977,3.14159265358977,                   71P    106
3.14159265358977,1.,0.707106781186508,1.,0.70710678118654,1.,         71P    107
0.707106781186508,1.,0.70710678118654,1.,-164.904681331067,           71P    108
-14.8104249698976,-74.6731457900657,-164.904681331067,                71P    109
-16.0604249698976,-74.6731457900657,-166.154681331067,                71P    110
-16.0604249698976,-74.6731457900657,-167.404681331067,                71P    111
-16.0604249698977,-74.6731457900657,-167.404681331067,                71P    112
-14.8104249698977,-74.6731457900657,-167.404681331067,                71P    113
-13.5604249698977,-74.6731457900657,-166.154681331067,                71P    114
-13.5604249698976,-74.6731457900657,-164.904681331067,                71P    115
-13.5604249698976,-74.6731457900657,-164.904681331067,                71P    116
-14.8104249698976,-74.6731457900657,-3.14159265358982,                71P    117
3.14159265358977,0.,0.,0.;                                            71P    118
126,1,1,0,0,1,0,2.49692677550114D-12,2.49692677550114D-12,            73P    119
5.76000000000248,5.76000000000248,1.,1.,-164.904681331067,            73P    120
-14.8104249698976,-74.6731457900657,-164.904681331067,                73P    121
-14.8104249698976,-81.8731457900657,2.49692677550114D-12,             73P    122
5.76000000000248,0.,0.,0.;                                            73P    123
126,8,2,0,1,0,0,-3.1415926535898,-3.1415926535898,                    75P    124
-3.1415926535898,-1.5707963267949,-1.5707963267949,                   75P    125
-5.77315972805081D-15,-5.77315972805081D-15,1.57079632679489,         75P    126
1.57079632679489,3.14159265358979,3.14159265358979,                   75P    127
3.14159265358979,1.,0.707106781186561,1.,0.707106781186565,1.,        75P    128
0.707106781186561,1.,0.707106781186565,1.,-164.904681331067,          75P    129
-14.8104249698976,-81.8731457900657,-164.904681331067,                75P    130
-13.5604249698976,-81.8731457900657,-166.154681331067,                75P    131
-13.5604249698976,-81.8731457900657,-167.404681331067,                75P    132
-13.5604249698976,-81.8731457900657,-167.404681331067,                75P    133
-14.8104249698976,-81.8731457900657,-167.404681331067,                75P    134
-16.0604249698976,-81.8731457900657,-166.154681331067,                75P    135
-16.0604249698976,-81.8731457900657,-164.904681331067,                75P    136
-16.0604249698976,-81.8731457900657,-164.904681331067,                75P    137
-14.8104249698976,-81.8731457900657,-3.1415926535898,                 75P    138
3.14159265358979,0.,0.,0.;                                            75P    139
126,8,2,0,1,0,0,-3.14159265358982,-3.14159265358982,                  77P    140
-3.14159265358982,-1.57079632679492,-1.57079632679492,                77P    141
-2.26485497023532D-14,-2.26485497023532D-14,1.57079632679487,         77P    142
1.57079632679487,3.14159265358977,3.14159265358977,                   77P    143
3.14159265358977,1.,0.707106781186505,1.,0.707106781186542,1.,        77P    144
0.707106781186508,1.,0.70710678118654,1.,-159.77284218014,            77P    145
-19.6750140511053,-74.6731457900656,-159.772842180139,                77P    146
-20.9250140511053,-74.6731457900656,-161.022842180139,                77P    147
-20.9250140511053,-74.6731457900657,-162.272842180139,                77P    148
-20.9250140511053,-74.6731457900657,-162.27284218014,                 77P    149
-19.6750140511053,-74.6731457900657,-162.27284218014,                 77P    150
-18.4250140511053,-74.6731457900657,-161.02284218014,                 77P    151
-18.4250140511053,-74.6731457900657,-159.77284218014,                 77P    152
-18.4250140511053,-74.6731457900656,-159.77284218014,                 77P    153
-19.6750140511053,-74.6731457900656,-3.14159265358982,                77P    154
3.14159265358977,0.,0.,0.;                                            77P    155
126,1,1,0,0,1,0,2.49692677550114D-12,2.49692677550114D-12,            79P    156
5.7600000000025,5.7600000000025,1.,1.,-159.77284218014,               79P    157
-19.6750140511053,-74.6731457900656,-159.772842180139,                79P    158
-19.6750140511053,-81.8731457900656,2.49692677550114D-12,             79P    159
5.7600000000025,0.,0.,0.;                                             79P    160
126,8,2,0,1,0,0,-3.1415926535898,-3.1415926535898,                    81P    161
-3.1415926535898,-1.5707963267949,-1.5707963267949,                   81P    162
-5.77315972805081D-15,-5.77315972805081D-15,1.57079632679489,         81P    163
1.57079632679489,3.14159265358979,3.14159265358979,                   81P    164
3.14159265358979,1.,0.707106781186561,1.,0.707106781186565,1.,        81P    165
0.707106781186563,1.,0.707106781186568,1.,-159.772842180139,          81P    166
-19.6750140511053,-81.8731457900656,-159.772842180139,                81P    167
-18.4250140511053,-81.8731457900656,-161.022842180139,                81P    168
-18.4250140511053,-81.8731457900656,-162.272842180139,                81P    169
-18.4250140511053,-81.8731457900657,-162.272842180139,                81P    170
-19.6750140511053,-81.8731457900657,-162.272842180139,                81P    171
-20.9250140511053,-81.8731457900657,-161.022842180139,                81P    172
-20.9250140511053,-81.8731457900656,-159.772842180139,                81P    173
-20.9250140511053,-81.8731457900656,-159.772842180139,                81P    174
-19.6750140511053,-81.8731457900656,-3.1415926535898,                 81P    175
3.14159265358979,0.,0.,0.;                                            81P    176
126,8,2,0,1,0,0,-3.14159265358979,-3.14159265358979,                  83P    177
-3.14159265358979,-1.5707963267949,-1.5707963267949,0.,0.,            83P    178
1.5707963267949,1.5707963267949,3.14159265358979,                     83P    179
3.14159265358979,3.14159265358979,1.,0.707106781186543,1.,            83P    180
0.707106781186548,1.,0.707106781186549,1.,0.707106781186543,1.,       83P    181
-176.021056296212,-19.8086390859631,-74.6731457900624,                83P    182
-176.021056296212,-29.8086390859631,-74.6731457900624,                83P    183
-166.021056296212,-29.8086390859631,-74.6731457900623,                83P    184
-156.021056296212,-29.8086390859631,-74.6731457900622,                83P    185
-156.021056296212,-19.8086390859631,-74.6731457900622,                83P    186
-156.021056296212,-9.80863908596314,-74.6731457900622,                83P    187
-166.021056296212,-9.80863908596314,-74.6731457900623,                83P    188
-176.021056296212,-9.80863908596314,-74.6731457900623,                83P    189
-176.021056296212,-19.8086390859631,-74.6731457900624,                83P    190
-3.14159265358979,3.14159265358979,0.,0.,0.;                          83P    191
126,1,1,0,0,1,0,-0.720000000000002,-0.720000000000002,                85P    192
1.15072782056479D-15,1.15072782056479D-15,1.,1.,                      85P    193
-176.021056296212,-19.8086390859631,-74.6731457900623,                85P    194
-176.021056296212,-19.8086390859631,-81.8731457900624,                85P    195
-0.720000000000002,1.15072782056479D-15,0.,0.,0.;                     85P    196
126,8,2,0,1,0,0,-3.14159265358979,-3.14159265358979,                  87P    197
-3.14159265358979,-1.5707963267949,-1.5707963267949,0.,0.,            87P    198
1.5707963267949,1.5707963267949,3.14159265358979,                     87P    199
3.14159265358979,3.14159265358979,1.,0.707106781186543,1.,            87P    200
0.707106781186549,1.,0.707106781186548,1.,0.707106781186543,1.,       87P    201
-176.021056296212,-19.8086390859631,-81.8731457900624,                87P    202
-176.021056296212,-9.8086390859631,-81.8731457900624,                 87P    203
-166.021056296212,-9.8086390859631,-81.8731457900623,                 87P    204
-156.021056296212,-9.80863908596311,-81.8731457900621,                87P    205
-156.021056296212,-19.8086390859631,-81.8731457900622,                87P    206
-156.021056296212,-29.8086390859631,-81.8731457900622,                87P    207
-166.021056296212,-29.8086390859631,-81.8731457900623,                87P    208
-176.021056296212,-29.8086390859631,-81.8731457900624,                87P    209
-176.021056296212,-19.8086390859631,-81.8731457900624,                87P    210
-3.14159265358979,3.14159265358979,0.,0.,0.;                          87P    211
126,4,2,0,0,0,0,0.620090213644905,0.620090213644905,                  89P    212
0.620090213644905,2.1908865404398,2.1908865404398,                    89P    213
3.7616828672347,3.7616828672347,3.7616828672347,1.,                   89P    214
0.707106781186541,1.,0.70710678118654,1.,-163.366056296221,           89P    215
-19.8086390859609,-42.2731457900657,-163.366056296221,                89P    216
-17.1536390859609,-42.2731457900657,-166.021056296221,                89P    217
-17.1536390859609,-42.2731457900657,-168.676056296221,                89P    218
-17.1536390859609,-42.2731457900657,-168.676056296221,                89P    219
-19.8086390859609,-42.2731457900657,0.620090213644905,                89P    220
3.7616828672347,0.,0.,0.;                                             89P    221
126,4,2,0,0,0,0,3.7616828672347,3.7616828672347,3.7616828672347,      91P    222
5.3324791940296,5.3324791940296,6.90327552082449,                     91P    223
6.90327552082449,6.90327552082449,1.,0.707106781186542,1.,            91P    224
0.707106781186541,1.,-168.676056296221,-19.8086390859609,             91P    225
-42.2731457900657,-168.676056296221,-22.4636390859608,                91P    226
-42.2731457900657,-166.021056296221,-22.4636390859608,                91P    227
-42.2731457900657,-163.366056296221,-22.4636390859609,                91P    228
-42.2731457900657,-163.366056296221,-19.8086390859609,                91P    229
-42.2731457900657,3.7616828672347,6.90327552082449,0.,0.,0.;          91P    230
126,1,1,0,0,1,0,-6.10169491525412,-6.10169491525412,                  93P    231
6.10169491525413,6.10169491525413,1.,1.,-168.676056296221,            93P    232
-19.8086390859609,-42.2731457900657,-168.676056296221,                93P    233
-19.8086390859608,-74.6731457900657,-6.10169491525412,                93P    234
6.10169491525413,0.,0.,0.;                                            93P    235
126,4,2,0,0,0,0,0.620090213644924,0.620090213644924,                  95P    236
0.620090213644924,2.19088654043981,2.19088654043981,                  95P    237
3.7616828672347,3.7616828672347,3.7616828672347,1.,                   95P    238
0.707106781186548,1.,0.707106781186554,1.,-163.366056296221,          95P    239
-19.8086390859609,-74.6731457900657,-163.366056296221,                95P    240
-22.4636390859608,-74.6731457900657,-166.021056296221,                95P    241
-22.4636390859608,-74.6731457900657,-168.676056296221,                95P    242
-22.4636390859607,-74.6731457900657,-168.676056296221,                95P    243
-19.8086390859608,-74.6731457900657,0.620090213644924,                95P    244
3.7616828672347,0.,0.,0.;                                             95P    245
126,4,2,0,0,0,0,3.7616828672347,3.7616828672347,3.7616828672347,      97P    246
5.3324791940296,5.3324791940296,6.90327552082451,                     97P    247
6.90327552082451,6.90327552082451,1.,0.707106781186568,1.,            97P    248
0.707106781186575,1.,-168.676056296221,-19.8086390859608,             97P    249
-74.6731457900657,-168.676056296221,-17.1536390859607,                97P    250
-74.6731457900657,-166.021056296221,-17.1536390859608,                97P    251
-74.6731457900657,-163.366056296221,-17.1536390859608,                97P    252
-74.6731457900657,-163.366056296221,-19.8086390859609,                97P    253
-74.6731457900657,3.7616828672347,6.90327552082451,0.,0.,0.;          97P    254
128,1,8,1,2,0,1,0,0,1,2.49692677550114D-12,2.49692677550114D-12,      99P    255
5.76000000000249,5.76000000000249,-3.14159265358979,                  99P    256
-3.14159265358979,-3.14159265358979,-1.5707963267949,                 99P    257
-1.5707963267949,0.,0.,1.5707963267949,1.5707963267949,               99P    258
3.14159265358979,3.14159265358979,3.14159265358979,1.,1.,             99P    259
0.707106781186548,0.707106781186548,1.,1.,0.707106781186548,          99P    260
0.707106781186548,1.,1.,0.707106781186548,0.707106781186548,1.,       99P    261
1.,0.707106781186548,0.707106781186548,1.,1.,-169.769270412275,       99P    262
-19.9422641208254,-74.6731457900657,-169.769270412275,                99P    263
-19.9422641208254,-81.8731457900657,-169.769270412275,                99P    264
-21.1922641208254,-74.6731457900657,-169.769270412275,                99P    265
-21.1922641208254,-81.8731457900657,-171.019270412275,                99P    266
-21.1922641208254,-74.6731457900657,-171.019270412275,                99P    267
-21.1922641208254,-81.8731457900657,-172.269270412275,                99P    268
-21.1922641208254,-74.6731457900657,-172.269270412275,                99P    269
-21.1922641208254,-81.8731457900657,-172.269270412275,                99P    270
-19.9422641208254,-74.6731457900657,-172.269270412275,                99P    271
-19.9422641208254,-81.8731457900657,-172.269270412275,                99P    272
-18.6922641208254,-74.6731457900657,-172.269270412275,                99P    273
-18.6922641208254,-81.8731457900657,-171.019270412275,                99P    274
-18.6922641208254,-74.6731457900657,-171.019270412275,                99P    275
-18.6922641208254,-81.8731457900657,-169.769270412275,                99P    276
-18.6922641208254,-74.6731457900657,-169.769270412275,                99P    277
-18.6922641208254,-81.8731457900657,-169.769270412275,                99P    278
-19.9422641208254,-74.6731457900657,-169.769270412275,                99P    279
-19.9422641208254,-81.8731457900657,2.49692677550114D-12,             99P    280
5.76000000000249,-3.14159265358979,3.14159265358979;                  99P    281
128,1,8,1,2,0,1,0,0,1,2.49692677550114D-12,2.49692677550114D-12,     101P    282
5.76000000000248,5.76000000000248,-3.14159265358979,                 101P    283
-3.14159265358979,-3.14159265358979,-1.5707963267949,                101P    284
-1.5707963267949,0.,0.,1.5707963267949,1.5707963267949,              101P    285
3.14159265358979,3.14159265358979,3.14159265358979,1.,1.,            101P    286
0.707106781186548,0.707106781186548,1.,1.,0.707106781186548,         101P    287
0.707106781186548,1.,1.,0.707106781186548,0.707106781186548,1.,      101P    288
1.,0.707106781186548,0.707106781186548,1.,1.,-164.637431261347,      101P    289
-24.8068532020331,-74.6731457900657,-164.637431261347,               101P    290
-24.8068532020331,-81.8731457900657,-164.637431261347,               101P    291
-26.0568532020331,-74.6731457900657,-164.637431261347,               101P    292
-26.0568532020331,-81.8731457900657,-165.887431261347,               101P    293
-26.0568532020331,-74.6731457900657,-165.887431261347,               101P    294
-26.0568532020331,-81.8731457900657,-167.137431261347,               101P    295
-26.0568532020331,-74.6731457900657,-167.137431261347,               101P    296
-26.0568532020331,-81.8731457900657,-167.137431261347,               101P    297
-24.8068532020331,-74.6731457900657,-167.137431261347,               101P    298
-24.8068532020331,-81.8731457900657,-167.137431261347,               101P    299
-23.5568532020331,-74.6731457900657,-167.137431261347,               101P    300
-23.5568532020331,-81.8731457900657,-165.887431261347,               101P    301
-23.5568532020331,-74.6731457900657,-165.887431261347,               101P    302
-23.5568532020331,-81.8731457900657,-164.637431261347,               101P    303
-23.5568532020331,-74.6731457900657,-164.637431261347,               101P    304
-23.5568532020331,-81.8731457900657,-164.637431261347,               101P    305
-24.8068532020331,-74.6731457900657,-164.637431261347,               101P    306
-24.8068532020331,-81.8731457900657,2.49692677550114D-12,            101P    307
5.76000000000248,-3.14159265358979,3.14159265358979;                 101P    308
128,1,8,1,2,0,1,0,0,1,2.49692677550114D-12,2.49692677550114D-12,     103P    309
5.76000000000248,5.76000000000248,-3.14159265358979,                 103P    310
-3.14159265358979,-3.14159265358979,-1.5707963267949,                103P    311
-1.5707963267949,0.,0.,1.5707963267949,1.5707963267949,              103P    312
3.14159265358979,3.14159265358979,3.14159265358979,1.,1.,            103P    313
0.707106781186548,0.707106781186548,1.,1.,0.707106781186548,         103P    314
0.707106781186548,1.,1.,0.707106781186548,0.707106781186548,1.,      103P    315
1.,0.707106781186548,0.707106781186548,1.,1.,-164.904681331067,      103P    316
-14.8104249698976,-74.6731457900657,-164.904681331067,               103P    317
-14.8104249698976,-81.8731457900657,-164.904681331067,               103P    318
-16.0604249698976,-74.6731457900657,-164.904681331067,               103P    319
-16.0604249698976,-81.8731457900657,-166.154681331067,               103P    320
-16.0604249698976,-74.6731457900657,-166.154681331067,               103P    321
-16.0604249698976,-81.8731457900657,-167.404681331067,               103P    322
-16.0604249698976,-74.6731457900657,-167.404681331067,               103P    323
-16.0604249698976,-81.8731457900657,-167.404681331067,               103P    324
-14.8104249698976,-74.6731457900657,-167.404681331067,               103P    325
-14.8104249698976,-81.8731457900657,-167.404681331067,               103P    326
-13.5604249698976,-74.6731457900657,-167.404681331067,               103P    327
-13.5604249698976,-81.8731457900657,-166.154681331067,               103P    328
-13.5604249698976,-74.6731457900657,-166.154681331067,               103P    329
-13.5604249698976,-81.8731457900657,-164.904681331067,               103P    330
-13.5604249698976,-74.6731457900657,-164.904681331067,               103P    331
-13.5604249698976,-81.8731457900657,-164.904681331067,               103P    332
-14.8104249698976,-74.6731457900657,-164.904681331067,               103P    333
-14.8104249698976,-81.8731457900657,2.49692677550114D-12,            103P    334
5.76000000000248,-3.14159265358979,3.14159265358979;                 103P    335
128,1,8,1,2,0,1,0,0,1,2.49692677550114D-12,2.49692677550114D-12,     105P    336
5.7600000000025,5.7600000000025,-3.14159265358979,                   105P    337
-3.14159265358979,-3.14159265358979,-1.5707963267949,                105P    338
-1.5707963267949,0.,0.,1.5707963267949,1.5707963267949,              105P    339
3.14159265358979,3.14159265358979,3.14159265358979,1.,1.,            105P    340
0.707106781186548,0.707106781186548,1.,1.,0.707106781186548,         105P    341
0.707106781186548,1.,1.,0.707106781186548,0.707106781186548,1.,      105P    342
1.,0.707106781186548,0.707106781186548,1.,1.,-159.77284218014,       105P    343
-19.6750140511053,-74.6731457900656,-159.772842180139,               105P    344
-19.6750140511053,-81.8731457900656,-159.77284218014,                105P    345
-20.9250140511053,-74.6731457900656,-159.772842180139,               105P    346
-20.9250140511053,-81.8731457900656,-161.02284218014,                105P    347
-20.9250140511053,-74.6731457900656,-161.022842180139,               105P    348
-20.9250140511053,-81.8731457900656,-162.27284218014,                105P    349
-20.9250140511053,-74.6731457900657,-162.272842180139,               105P    350
-20.9250140511053,-81.8731457900657,-162.27284218014,                105P    351
-19.6750140511053,-74.6731457900657,-162.272842180139,               105P    352
-19.6750140511053,-81.8731457900657,-162.27284218014,                105P    353
-18.4250140511053,-74.6731457900657,-162.272842180139,               105P    354
-18.4250140511053,-81.8731457900657,-161.02284218014,                105P    355
-18.4250140511053,-74.6731457900656,-161.022842180139,               105P    356
-18.4250140511053,-81.8731457900656,-159.77284218014,                105P    357
-18.4250140511053,-74.6731457900656,-159.772842180139,               105P    358
-18.4250140511053,-81.8731457900656,-159.77284218014,                105P    359
-19.6750140511053,-74.6731457900656,-159.772842180139,               105P    360
-19.6750140511053,-81.8731457900656,2.49692677550114D-12,            105P    361
5.7600000000025,-3.14159265358979,3.14159265358979;                  105P    362
128,1,8,1,2,0,1,0,0,1,-1.15072782056479D-15,                         107P    363
-1.15072782056479D-15,0.720000000000002,0.720000000000002,           107P    364
-3.14159265358979,-3.14159265358979,-3.14159265358979,               107P    365
-1.5707963267949,-1.5707963267949,0.,0.,1.5707963267949,             107P    366
1.5707963267949,3.14159265358979,3.14159265358979,                   107P    367
3.14159265358979,1.,1.,0.707106781186548,0.707106781186548,1.,       107P    368
1.,0.707106781186548,0.707106781186548,1.,1.,0.707106781186548,      107P    369
0.707106781186548,1.,1.,0.707106781186548,0.707106781186548,1.,      107P    370
1.,-176.021056296212,-19.8086390859631,-74.6731457900623,            107P    371
-176.021056296212,-19.8086390859631,-81.8731457900624,               107P    372
-176.021056296212,-29.8086390859631,-74.6731457900624,               107P    373
-176.021056296212,-29.8086390859631,-81.8731457900624,               107P    374
-166.021056296212,-29.8086390859631,-74.6731457900623,               107P    375
-166.021056296212,-29.8086390859631,-81.8731457900623,               107P    376
-156.021056296212,-29.8086390859631,-74.6731457900622,               107P    377
-156.021056296212,-29.8086390859631,-81.8731457900622,               107P    378
-156.021056296212,-19.8086390859631,-74.6731457900621,               107P    379
-156.021056296212,-19.8086390859631,-81.8731457900622,               107P    380
-156.021056296212,-9.80863908596312,-74.6731457900621,               107P    381
-156.021056296212,-9.80863908596311,-81.8731457900622,               107P    382
-166.021056296212,-9.80863908596312,-74.6731457900622,               107P    383
-166.021056296212,-9.8086390859631,-81.8731457900623,                107P    384
-176.021056296212,-9.80863908596312,-74.6731457900623,               107P    385
-176.021056296212,-9.80863908596311,-81.8731457900624,               107P    386
-176.021056296212,-19.8086390859631,-74.6731457900623,               107P    387
-176.021056296212,-19.8086390859631,-81.8731457900624,               107P    388
-1.15072782056479D-15,0.720000000000002,-3.14159265358979,           107P    389
3.14159265358979;                                                    107P    390
128,1,1,1,1,0,0,1,0,0,-0.667666666666123,-0.667666666666123,         109P    391
0.667666666667219,0.667666666667219,-0.667666666666827,              109P    392
-0.667666666666827,0.667666666666514,0.667666666666514,1.,1.,1.,     109P    393
1.,-156.006056296212,-29.8236390859632,-81.8731457900657,            109P    394
-176.036056296213,-29.8236390859631,-81.8731457900657,               109P    395
-156.006056296212,-9.79363908596311,-81.8731457900656,               109P    396
-176.036056296212,-9.79363908596299,-81.8731457900657,               109P    397
-0.667666666666123,0.667666666667219,-0.667666666666827,             109P    398
0.667666666666514;                                                   109P    399
128,1,8,1,2,0,1,0,0,1,-6.10169491525413,-6.10169491525413,           111P    400
6.10169491525412,6.10169491525412,-3.14159265358979,                 111P    401
-3.14159265358979,-3.14159265358979,-1.5707963267949,                111P    402
-1.5707963267949,0.,0.,1.5707963267949,1.5707963267949,              111P    403
3.14159265358979,3.14159265358979,3.14159265358979,1.,1.,            111P    404
0.707106781186548,0.707106781186548,1.,1.,0.707106781186548,         111P    405
0.707106781186548,1.,1.,0.707106781186548,0.707106781186548,1.,      111P    406
1.,0.707106781186548,0.707106781186548,1.,1.,-168.676056296221,      111P    407
-19.8086390859609,-42.2731457900657,-168.676056296221,               111P    408
-19.8086390859608,-74.6731457900657,-168.676056296221,               111P    409
-22.4636390859609,-42.2731457900657,-168.676056296221,               111P    410
-22.4636390859608,-74.6731457900657,-166.021056296221,               111P    411
-22.4636390859609,-42.2731457900657,-166.021056296221,               111P    412
-22.4636390859608,-74.6731457900657,-163.366056296221,               111P    413
-22.4636390859609,-42.2731457900657,-163.366056296221,               111P    414
-22.4636390859608,-74.6731457900657,-163.366056296221,               111P    415
-19.8086390859609,-42.2731457900657,-163.366056296221,               111P    416
-19.8086390859608,-74.6731457900657,-163.366056296221,               111P    417
-17.1536390859609,-42.2731457900657,-163.366056296221,               111P    418
-17.1536390859608,-74.6731457900657,-166.021056296221,               111P    419
-17.1536390859608,-42.2731457900657,-166.021056296221,               111P    420
-17.1536390859608,-74.6731457900657,-168.676056296221,               111P    421
-17.1536390859608,-42.2731457900657,-168.676056296221,               111P    422
-17.1536390859607,-74.6731457900657,-168.676056296221,               111P    423
-19.8086390859609,-42.2731457900657,-168.676056296221,               111P    424
-19.8086390859608,-74.6731457900657,-6.10169491525413,               111P    425
6.10169491525412,-3.14159265358979,3.14159265358979;                 111P    426
128,1,1,1,1,0,0,1,0,0,-0.148500000000001,-0.148500000000001,         113P    427
0.148499999999999,0.148499999999999,-0.296999999999995,              113P    428
-0.296999999999995,4.44002473676264D-15,4.44002473676264D-15,1.,     113P    429
1.,1.,1.,-168.694056296221,-22.4816390859609,-42.2731457900657,      113P    430
-163.348056296221,-22.4816390859609,-42.2731457900657,               113P    431
-168.694056296221,-17.1356390859609,-42.2731457900657,               113P    432
-163.348056296221,-17.1356390859609,-42.2731457900657,               113P    433
-0.148500000000001,0.148499999999999,-0.296999999999995,             113P    434
4.44002473676264D-15;                                                113P    435
128,1,1,1,1,0,0,1,0,0,-0.556555555555105,-0.556555555555105,         115P    436
0.556555555556008,0.556555555556008,-0.0555555555556819,             115P    437
-0.0555555555556819,1.05755555555543,1.05755555555543,1.,1.,1.,      115P    438
1.,-176.039056296213,-29.8266390859631,-74.6731457900657,            115P    439
-156.003056296213,-29.8266390859632,-74.6731457900657,               115P    440
-176.039056296212,-9.79063908596307,-74.6731457900657,               115P    441
-156.003056296212,-9.79063908596318,-74.6731457900656,               115P    442
-0.556555555555105,0.556555555556008,-0.0555555555556819,            115P    443
1.05755555555543;                                                    115P    444
502,14,-169.769270412275,-19.9422641208254,-74.6731457900626,        117P    445
-169.769270412275,-19.9422641208253,-81.8731457900657,               117P    446
-164.637431261347,-24.8068532020331,-74.6731457900626,               117P    447
-164.637431261347,-24.8068532020331,-81.8731457900657,               117P    448
-164.904681331067,-14.8104249698976,-74.6731457900626,               117P    449
-164.904681331067,-14.8104249698976,-81.8731457900657,               117P    450
-159.77284218014,-19.6750140511053,-74.6731457900625,                117P    451
-159.772842180139,-19.6750140511053,-81.8731457900656,               117P    452
-176.021056296212,-19.8086390859631,-74.6731457900624,               117P    453
-176.021056296212,-19.8086390859631,-81.8731457900624,               117P    454
-163.366056296221,-19.8086390859609,-42.2731457900657,               117P    455
-168.676056296221,-19.8086390859609,-42.2731457900657,               117P    456
-168.676056296221,-19.8086390859608,-74.6731457900657,               117P    457
-163.366056296221,-19.8086390859608,-74.6731457900657;               117P    458
504,20,59,117,1,117,1,61,117,1,117,2,63,117,2,117,2,65,117,3,        119P    459
117,3,67,117,3,117,4,69,117,4,117,4,71,117,5,117,5,73,117,5,117,     119P    460
6,75,117,6,117,6,77,117,7,117,7,79,117,7,117,8,81,117,8,117,8,       119P    461
83,117,9,117,9,85,117,9,117,10,87,117,10,117,10,89,117,11,117,       119P    462
12,91,117,12,117,11,93,117,12,117,13,95,117,14,117,13,97,117,13,     119P    463
117,14;                                                              119P    464
406,1,5HBody1;                                                       121P    465
314,96.4705882352941,96.4705882352941,95.2941176470588,19HOpaque     123P    466
(246,246,243);                                                       123P    467
314,62.7450980392157,62.7450980392157,62.7450980392157,13HSteel      125P    468
- Satin;                                                             125P    469
S      1G      3D    126P    469                                        T      1
