                                                                        S      1
,,4HPIN',13H10 ΦΟΡΕΣ,7Hunknown,7Hunknown,32,38,7,99,15,,1.,2,2HMM, G      1
1,0.08,15H20250527.031204,0.01,10000.,7Hunknown,7Hunknown,11,0,;        G      2
     186       1                                                00000000D      1
     186             -35       1       0                               0D      2
     514       2                                                00010000D      3
     514                       1       1                               0D      4
     510       3                                                00010000D      5
     510             -37       1       1                               0D      6
     510       4                                                00010000D      7
     510             -37       1       1                               0D      8
     510       5                                                00010000D      9
     510             -37       1       1                               0D     10
     508       6                                                00010000D     11
     508                       1       1                               0D     12
     508       7                                                00010000D     13
     508                       1       1                               0D     14
     508       8                                                00010000D     15
     508                       1       1                               0D     16
     126       9                                                00010000D     17
     126       0              15       0                               0D     18
     126      24                                                00010000D     19
     126       0              15       0                               0D     20
     126      39                                                00010000D     21
     126       0               5       0                               0D     22
     128      44                                                00010000D     23
     128       0     -37       9       0                               0D     24
     128      53                                                00010000D     25
     128       0     -37      27       0                               0D     26
     128      80                                                00010000D     27
     128       0     -37       7       0                               0D     28
     502      87                                                00010000D     29
     502                       2       1                               0D     30
     504      89                                                00010001D     31
     504                       1       1                               0D     32
     406      90                                                00000000D     33
     406                       1      15                               0D     34
     314      91                                                00000200D     35
     314                       2       0                               0D     36
     314      93                                                00000200D     37
     314                       2       0                               0D     38
186,3,1,0,0,1,33;                                                      1P      1
514,3,5,1,7,1,9,1;                                                     3P      2
510,23,1,1,11;                                                         5P      3
510,25,1,1,13;                                                         7P      4
510,27,1,1,15;                                                         9P      5
508,1,0,31,1,1,0;                                                     11P      6
508,4,0,31,2,0,0,0,31,3,1,0,0,31,1,0,0,0,31,3,0,0;                    13P      7
508,1,0,31,2,1,0;                                                     15P      8
126,8,2,0,1,0,0,-3.14159265358979,-3.14159265358979,                  17P      9
-3.14159265358979,-1.5707963267949,-1.5707963267949,0.,0.,            17P     10
1.5707963267949,1.5707963267949,3.14159265358979,                     17P     11
3.14159265358979,3.14159265358979,1.,0.707106781186554,1.,            17P     12
0.707106781186554,1.,0.707106781186554,1.,0.707106781186554,1.,       17P     13
21.4542836316737,-28.9160653075539,55.2722427384224,                  17P     14
21.4542836316737,-28.9160653075539,57.5402427384224,                  17P     15
22.5882836316737,-26.9519196917708,57.5402427384224,                  17P     16
23.7222836316737,-24.9877740759877,57.5402427384224,                  17P     17
23.7222836316737,-24.9877740759877,55.2722427384224,                  17P     18
23.7222836316737,-24.9877740759877,53.0042427384224,                  17P     19
22.5882836316737,-26.9519196917708,53.0042427384224,                  17P     20
21.4542836316737,-28.9160653075539,53.0042427384224,                  17P     21
21.4542836316737,-28.9160653075539,55.2722427384224,                  17P     22
-3.14159265358979,3.14159265358979,0.,0.,0.;                          17P     23
126,8,2,0,1,0,0,-3.14159265358979,-3.14159265358979,                  19P     24
-3.14159265358979,-1.5707963267949,-1.5707963267949,0.,0.,            19P     25
1.5707963267949,1.5707963267949,3.14159265358979,                     19P     26
3.14159265358979,3.14159265358979,1.,0.707106781186559,1.,            19P     27
0.707106781186559,1.,0.707106781186559,1.,0.707106781186559,1.,       19P     28
52.0076598771887,-46.5560653075539,55.2722427384224,                  19P     29
52.0076598771887,-46.5560653075539,53.0042427384224,                  19P     30
53.1416598771887,-44.5919196917708,53.0042427384224,                  19P     31
54.2756598771887,-42.6277740759877,53.0042427384224,                  19P     32
54.2756598771887,-42.6277740759877,55.2722427384224,                  19P     33
54.2756598771887,-42.6277740759877,57.5402427384224,                  19P     34
53.1416598771887,-44.5919196917708,57.5402427384224,                  19P     35
52.0076598771887,-46.5560653075539,57.5402427384224,                  19P     36
52.0076598771887,-46.5560653075539,55.2722427384224,                  19P     37
-3.14159265358979,3.14159265358979,0.,0.,0.;                          19P     38
126,1,1,0,0,1,0,-8.8888888888889,-8.8888888888889,                    21P     39
6.66666666666666,6.66666666666666,1.,1.,52.0076598771888,             21P     40
-46.5560653075539,55.2722427384224,21.4542836316737,                  21P     41
-28.916065307554,55.2722427384224,-8.8888888888889,                   21P     42
6.66666666666666,0.,0.,0.;                                            21P     43
128,1,1,1,1,0,0,1,0,0,-0.0910000000000002,-0.0910000000000002,        23P     44
0.0910000000000001,0.0910000000000001,-0.091,-0.091,                  23P     45
0.0910000000000003,0.0910000000000003,1.,1.,1.,1.,                    23P     46
23.7348836316737,-24.9659502358124,52.9790427384224,                  23P     47
21.4416836316737,-28.9378891477293,52.9790427384224,                  23P     48
23.7348836316737,-24.9659502358124,57.5654427384224,                  23P     49
21.4416836316737,-28.9378891477293,57.5654427384224,                  23P     50
-0.0910000000000002,0.0910000000000001,-0.091,                        23P     51
0.0910000000000003;                                                   23P     52
128,1,8,1,2,0,1,0,0,1,-6.66666666666666,-6.66666666666666,            25P     53
8.8888888888889,8.8888888888889,-3.14159265358979,                    25P     54
-3.14159265358979,-3.14159265358979,-1.5707963267949,                 25P     55
-1.5707963267949,0.,0.,1.5707963267949,1.5707963267949,               25P     56
3.14159265358979,3.14159265358979,3.14159265358979,1.,1.,             25P     57
0.707106781186548,0.707106781186548,1.,1.,0.707106781186548,          25P     58
0.707106781186548,1.,1.,0.707106781186548,0.707106781186548,1.,       25P     59
1.,0.707106781186548,0.707106781186548,1.,1.,52.0076598771888,        25P     60
-46.5560653075539,55.2722427384224,21.4542836316737,                  25P     61
-28.916065307554,55.2722427384224,52.0076598771888,                   25P     62
-46.5560653075539,53.0042427384224,21.4542836316737,                  25P     63
-28.916065307554,53.0042427384224,53.1416598771887,                   25P     64
-44.5919196917708,53.0042427384224,22.5882836316737,                  25P     65
-26.9519196917708,53.0042427384224,54.2756598771887,                  25P     66
-42.6277740759877,53.0042427384224,23.7222836316737,                  25P     67
-24.9877740759877,53.0042427384224,54.2756598771887,                  25P     68
-42.6277740759877,55.2722427384224,23.7222836316737,                  25P     69
-24.9877740759877,55.2722427384224,54.2756598771887,                  25P     70
-42.6277740759877,57.5402427384224,23.7222836316737,                  25P     71
-24.9877740759877,57.5402427384224,53.1416598771887,                  25P     72
-44.5919196917708,57.5402427384224,22.5882836316737,                  25P     73
-26.9519196917708,57.5402427384224,52.0076598771888,                  25P     74
-46.5560653075539,57.5402427384224,21.4542836316737,                  25P     75
-28.916065307554,57.5402427384224,52.0076598771888,                   25P     76
-46.5560653075539,55.2722427384224,21.4542836316737,                  25P     77
-28.916065307554,55.2722427384224,-6.66666666666666,                  25P     78
8.8888888888889,-3.14159265358979,3.14159265358979;                   25P     79
128,1,1,1,1,0,0,1,0,0,-0.0910000000000001,-0.0910000000000001,        27P     80
0.091,0.091,-0.091,-0.091,0.091,0.091,1.,1.,1.,1.,                    27P     81
51.9950598771887,-46.5778891477293,52.9790427384224,                  27P     82
54.2882598771887,-42.6059502358123,52.9790427384224,                  27P     83
51.9950598771887,-46.5778891477293,57.5654427384224,                  27P     84
54.2882598771887,-42.6059502358124,57.5654427384224,                  27P     85
-0.0910000000000001,0.091,-0.091,0.091;                               27P     86
502,2,21.4542836316737,-28.916065307554,55.2722427384224,             29P     87
52.0076598771887,-46.5560653075539,55.2722427384224;                  29P     88
504,3,17,29,1,29,1,19,29,2,29,2,21,29,2,29,1;                         31P     89
406,1,5HBody1;                                                        33P     90
314,62.7450980392157,62.7450980392157,62.7450980392157,13HSteel       35P     91
- Satin;                                                              35P     92
314,9.80392156862745,9.80392156862745,9.80392156862745,29HPaint       37P     93
- Enamel Glossy (Black);                                              37P     94
S      1G      2D     38P     94                                        T      1
